<svg xmlns="http://www.w3.org/2000/svg" version="1.1" xmlns:xlink="http://www.w3.org/1999/xlink" width="1024" height="1024"><svg version="1.0" xmlns="http://www.w3.org/2000/svg" width="1024" height="1024" viewBox="523 678 1002 692" preserveAspectRatio="xMidYMid meet">
<metadata>
Created by potrace 1.16, written by Peter Selinger 2001-2019
</metadata>
<g transform="translate(0.000000,2048.000000) scale(0.100000,-0.100000)" fill="#0ABAB5" stroke="none">
<path d="M11884 13499 c-5 -8 -36 -10 -103 -6 -63 4 -89 2 -76 -4 14 -6 -2 -8
-50 -5 -50 4 -63 2 -45 -4 19 -7 9 -9 -37 -6 -35 2 -63 0 -63 -4 0 -5 -16 -7
-35 -5 -19 3 -35 1 -35 -4 0 -6 -16 -7 -37 -4 -26 4 -34 3 -29 -5 5 -8 2 -10
-8 -6 -9 3 -24 3 -33 -1 -10 -5 -25 -7 -35 -6 -9 1 -19 -2 -22 -8 -3 -5 -16
-7 -28 -3 -13 3 -19 1 -15 -5 4 -6 -3 -8 -18 -5 -15 2 -25 0 -25 -8 0 -7 -8
-9 -21 -5 -13 4 -19 3 -16 -2 4 -6 -4 -8 -20 -5 -17 3 -24 1 -19 -6 4 -6 -2
-8 -14 -5 -11 3 -20 1 -20 -5 0 -6 -10 -8 -22 -4 -16 4 -19 2 -13 -8 5 -9 4
-11 -3 -6 -16 10 -153 -35 -145 -47 4 -6 1 -7 -6 -3 -13 9 -161 -43 -161 -56
0 -4 -7 -4 -17 -1 -12 5 -14 3 -8 -7 5 -8 3 -11 -6 -8 -8 3 -34 -5 -59 -18
-25 -13 -51 -24 -57 -24 -7 0 -13 -5 -13 -12 0 -6 -3 -8 -7 -5 -3 4 -12 -1
-20 -11 -8 -9 -12 -11 -8 -4 10 19 -2 14 -26 -10 -12 -13 -19 -17 -15 -10 9
16 1 16 -16 -1 -7 -7 -32 -21 -55 -31 -23 -10 -40 -23 -37 -28 3 -5 0 -9 -7
-7 -28 3 -40 -1 -33 -13 4 -7 3 -8 -4 -4 -6 4 -20 -2 -31 -13 -11 -11 -22 -17
-25 -14 -3 4 -6 1 -6 -5 0 -7 -3 -11 -7 -11 -19 3 -34 -2 -29 -9 3 -5 -1 -9
-8 -9 -13 0 -226 -141 -226 -150 0 -2 5 -1 12 3 7 4 8 3 4 -5 -4 -6 -12 -9
-17 -5 -5 3 -37 -23 -72 -58 -34 -35 -53 -52 -42 -38 11 13 -13 -5 -53 -40
-40 -35 -82 -76 -93 -90 -11 -14 -17 -18 -13 -10 4 8 -16 -7 -45 -35 -51 -49
-67 -71 -33 -44 10 8 1 -2 -19 -21 -31 -29 -36 -39 -29 -57 5 -12 18 -28 30
-35 11 -7 20 -17 20 -23 0 -5 14 -21 30 -35 17 -14 32 -32 33 -40 2 -8 15 -27
30 -43 16 -15 25 -32 22 -37 -3 -6 -1 -10 5 -10 6 0 8 -4 5 -10 -3 -5 1 -10
10 -10 9 0 15 -5 13 -12 -2 -6 4 -20 15 -31 11 -11 16 -25 12 -35 -3 -9 -3
-13 1 -10 3 4 17 -5 31 -20 13 -15 22 -21 18 -14 -3 6 1 15 9 18 8 3 18 14 21
25 4 11 11 17 16 14 5 -4 9 1 9 10 0 9 4 14 9 11 4 -3 17 4 27 17 19 21 19 21
-1 7 -19 -14 -19 -14 -6 3 7 9 20 17 27 17 8 0 13 3 12 8 -4 12 26 52 39 52 7
0 13 6 13 14 0 8 7 17 16 20 10 4 13 2 8 -7 -3 -6 9 2 27 20 19 18 53 50 76
72 23 21 43 37 46 35 3 -3 15 8 27 23 12 15 25 28 28 28 4 0 6 3 4 8 -1 4 6 7
16 7 10 0 32 13 49 29 18 16 34 26 37 23 3 -3 6 0 6 6 0 7 5 12 11 12 18 0 59
37 51 45 -4 5 -2 5 5 2 6 -4 18 -1 26 7 8 8 17 12 21 9 3 -3 8 2 12 11 3 9 10
13 15 10 5 -3 9 0 9 7 0 7 3 9 6 6 8 -8 124 52 124 64 0 5 3 8 8 8 21 -4 32 2
26 14 -4 6 -4 9 1 5 4 -4 27 4 50 17 24 13 46 21 49 18 3 -4 6 0 6 7 0 7 3 10
7 7 3 -4 12 1 19 11 10 13 13 14 14 3 0 -11 4 -9 14 5 8 10 17 16 21 12 9 -8
65 11 65 23 0 4 7 6 15 3 8 -4 15 -1 15 6 0 6 5 8 10 5 6 -3 10 -2 10 4 0 6 7
8 15 5 8 -4 15 -1 15 5 0 6 7 8 17 4 12 -5 14 -3 8 7 -6 10 -3 12 13 8 12 -4
22 -2 22 4 0 6 7 8 15 4 8 -3 15 -1 15 3 0 5 10 7 22 3 15 -4 19 -2 13 7 -5
10 -2 11 14 6 11 -3 21 -2 21 3 0 6 10 8 22 4 13 -3 19 -1 15 5 -4 6 4 8 21 6
21 -4 24 -2 12 6 -11 8 -7 9 19 4 26 -5 32 -3 26 7 -6 9 0 11 23 5 17 -3 33
-2 36 4 4 6 13 8 21 4 8 -3 15 -1 15 5 0 6 9 8 20 5 11 -3 27 0 35 7 8 6 19 9
25 5 6 -4 17 -2 24 5 8 6 25 8 39 5 14 -4 28 -2 32 4 4 7 20 9 40 5 20 -3 35
-1 40 5 4 7 30 10 73 7 48 -4 57 -3 32 3 -23 5 32 9 155 10 133 0 186 -2 175
-10 -11 -7 4 -8 51 -3 42 4 69 2 73 -4 4 -6 22 -8 41 -5 24 4 35 2 35 -7 0 -9
10 -10 36 -5 26 4 34 3 29 -5 -6 -9 1 -10 24 -5 21 4 31 3 31 -5 0 -8 9 -10
25 -6 15 4 25 2 25 -4 0 -7 8 -9 19 -5 11 3 22 1 26 -5 4 -6 15 -8 26 -5 11 4
19 2 19 -5 0 -6 10 -8 25 -4 16 4 25 2 25 -5 0 -7 10 -9 25 -7 17 3 23 1 19
-6 -5 -7 -1 -9 9 -5 10 4 17 2 17 -4 0 -6 9 -9 20 -6 11 3 20 1 20 -5 0 -5 10
-6 21 -3 16 5 19 4 14 -6 -6 -9 -3 -11 8 -6 10 3 17 2 17 -4 0 -6 9 -8 21 -4
14 5 19 4 15 -4 -5 -7 -1 -9 8 -5 9 3 16 1 16 -6 0 -6 4 -9 9 -5 5 3 12 1 16
-5 4 -6 11 -8 16 -5 5 4 16 -1 25 -10 9 -9 23 -14 30 -11 8 3 14 1 14 -5 0 -6
5 -7 10 -4 6 3 10 2 10 -4 0 -6 7 -7 17 -4 10 4 14 2 10 -4 -8 -12 20 -26 34
-17 5 3 9 0 9 -6 0 -6 5 -8 10 -5 6 3 10 1 10 -5 0 -6 5 -8 10 -5 6 3 10 0 10
-7 0 -9 3 -9 10 2 8 13 10 12 10 -3 0 -10 5 -15 10 -12 6 3 10 1 10 -5 0 -6 5
-8 10 -5 6 3 10 1 10 -5 0 -6 5 -8 10 -5 6 3 10 1 10 -5 0 -6 5 -8 10 -5 6 3
10 1 10 -4 0 -6 3 -10 8 -9 14 4 52 -13 47 -21 -3 -7 44 -35 53 -32 1 1 11 -8
22 -19 11 -11 27 -20 35 -20 8 0 15 -5 15 -10 0 -6 3 -9 8 -9 19 3 33 -2 27
-11 -3 -5 1 -10 9 -10 9 0 16 -4 16 -10 0 -5 6 -10 14 -10 8 0 17 -7 20 -16 3
-8 10 -13 15 -9 6 3 15 -4 21 -15 6 -11 15 -20 21 -20 6 0 20 -10 31 -22 11
-13 17 -16 13 -8 -4 8 6 2 21 -15 15 -16 31 -29 35 -28 4 1 19 -13 34 -32 14
-19 32 -35 40 -35 7 0 31 -21 51 -46 21 -25 48 -50 61 -55 13 -5 27 -19 32
-31 9 -24 51 -67 51 -53 0 4 9 -4 20 -18 11 -14 20 -28 20 -33 0 -4 17 -22 38
-41 20 -19 30 -31 22 -28 -8 4 -4 -3 10 -16 14 -12 24 -25 23 -30 -1 -4 19
-29 45 -55 26 -26 40 -44 32 -40 -9 5 -8 2 3 -7 9 -8 17 -20 17 -26 0 -7 5 -9
10 -6 6 3 10 -3 10 -15 0 -12 5 -18 10 -15 6 3 10 -3 10 -14 0 -12 8 -29 18
-39 10 -10 16 -24 14 -32 -3 -7 0 -10 6 -6 5 3 13 -1 16 -10 4 -10 2 -13 -7
-8 -9 5 -9 4 0 -6 6 -7 9 -19 6 -28 -4 -9 -2 -13 4 -9 7 4 12 -7 15 -28 2 -20
0 -35 -7 -35 -5 0 -3 -5 5 -11 9 -6 11 -12 4 -15 -6 -2 -8 -19 -6 -36 3 -22 1
-29 -7 -24 -9 6 -10 0 -5 -20 5 -21 4 -25 -6 -19 -10 6 -12 4 -7 -8 3 -10 2
-17 -4 -17 -6 0 -8 -4 -5 -9 4 -5 2 -11 -4 -13 -5 -1 -11 -14 -12 -28 -2 -14
-11 -31 -21 -38 -9 -7 -15 -18 -12 -23 4 -5 1 -9 -4 -9 -6 0 -11 -5 -11 -11 0
-5 -13 -24 -30 -42 -16 -18 -30 -34 -30 -37 0 -10 -199 -207 -204 -203 -3 3
-11 -4 -18 -16 -7 -12 -18 -21 -25 -21 -6 0 -21 -12 -33 -27 -12 -16 -18 -22
-14 -14 5 9 -2 7 -18 -5 -14 -10 -23 -23 -20 -28 3 -5 0 -6 -6 -2 -7 4 -23 -4
-36 -17 -14 -14 -27 -22 -30 -19 -3 3 -6 0 -6 -7 0 -7 -4 -10 -9 -7 -5 3 -20
-4 -33 -17 -14 -12 -32 -23 -39 -25 -8 -2 -18 -9 -24 -16 -5 -7 -14 -14 -20
-16 -27 -8 -75 -35 -75 -42 0 -5 -4 -6 -10 -3 -5 3 -10 1 -10 -5 0 -6 -4 -8
-10 -5 -5 3 -10 1 -10 -5 0 -6 -4 -9 -9 -6 -5 3 -14 -1 -21 -9 -6 -7 -17 -12
-24 -9 -8 3 -20 -2 -29 -10 -8 -8 -17 -12 -21 -9 -3 4 -6 1 -6 -5 0 -6 -7 -9
-15 -6 -8 4 -15 1 -15 -7 0 -7 -3 -9 -7 -6 -3 4 -12 2 -20 -4 -7 -6 -13 -8
-13 -5 0 4 -10 1 -22 -6 -13 -7 -26 -11 -30 -10 -5 1 -8 -2 -8 -8 0 -5 -7 -7
-15 -4 -8 4 -15 1 -15 -6 0 -7 -8 -9 -19 -5 -11 3 -22 1 -26 -5 -3 -6 -11 -8
-16 -5 -5 4 -9 1 -9 -5 0 -7 -7 -10 -15 -6 -8 3 -15 1 -15 -5 0 -6 -9 -8 -20
-4 -12 4 -20 2 -20 -5 0 -7 -8 -9 -19 -5 -11 3 -22 1 -26 -5 -3 -5 -18 -7 -32
-4 -16 4 -24 3 -20 -3 4 -6 -9 -8 -34 -6 -30 3 -39 1 -34 -7 6 -9 -3 -10 -34
-5 -28 5 -41 3 -41 -5 0 -8 -20 -9 -71 -4 -53 5 -70 4 -65 -5 5 -8 -23 -11
-106 -10 -82 1 -104 4 -78 10 23 5 0 6 -65 4 -63 -3 -93 -1 -80 4 13 6 1 7
-34 4 -38 -4 -52 -3 -47 5 4 7 -5 9 -29 5 -23 -4 -35 -2 -35 6 0 6 -5 11 -11
11 -6 0 -7 -6 -2 -12 4 -7 -5 -5 -19 4 -14 10 -36 15 -47 13 -12 -2 -21 0 -21
6 0 5 -11 7 -25 3 -14 -3 -25 -2 -25 4 0 5 -11 8 -25 7 -14 -2 -25 0 -25 4 0
5 -12 6 -26 3 -19 -3 -25 -1 -20 7 6 9 0 10 -20 5 -18 -5 -25 -3 -20 4 4 6 -2
8 -14 5 -11 -3 -20 -1 -20 5 0 6 -10 8 -22 4 -15 -3 -19 -2 -14 7 6 9 0 10
-20 5 -18 -5 -25 -3 -20 4 4 6 -2 8 -16 4 -13 -3 -19 -1 -15 5 5 7 -1 9 -15 5
-15 -4 -19 -2 -13 7 6 10 2 11 -15 6 -16 -5 -20 -4 -15 5 5 9 2 10 -14 5 -12
-4 -21 -2 -21 4 0 6 -7 7 -17 4 -10 -4 -14 -2 -10 4 5 7 -1 9 -15 5 -16 -4
-19 -2 -13 8 5 9 4 11 -4 6 -16 -10 -53 3 -45 16 5 7 1 9 -9 5 -10 -3 -17 -2
-17 3 0 5 -7 6 -17 3 -11 -4 -14 -3 -9 5 5 8 2 10 -8 6 -9 -3 -16 -1 -16 6 0
6 -4 8 -10 5 -5 -3 -10 -2 -10 4 0 6 -6 8 -14 5 -8 -3 -24 4 -36 16 -11 11
-25 18 -30 15 -4 -3 -10 -1 -12 5 -2 6 -14 12 -27 15 -14 2 -27 9 -30 14 -4 5
-19 13 -34 16 -16 4 -31 14 -34 21 -3 8 -9 11 -14 8 -5 -3 -9 0 -9 6 0 6 -4 8
-10 5 -5 -3 -10 -1 -10 6 0 7 -3 9 -7 6 -3 -4 -12 1 -20 11 -10 11 -12 12 -8
2 4 -8 -1 -6 -9 4 -9 11 -16 16 -16 10 0 -5 -7 0 -15 10 -8 11 -15 16 -15 10
0 -5 -7 0 -15 10 -8 11 -15 16 -15 11 0 -5 -7 0 -16 11 -8 10 -13 12 -9 4 6
-13 5 -13 -7 0 -7 8 -20 16 -28 18 -8 2 -26 15 -39 30 -13 15 -20 20 -16 12 3
-8 -1 -6 -10 5 -9 11 -19 20 -23 20 -22 2 -52 18 -47 25 3 5 -10 12 -30 16
-19 3 -33 9 -31 13 2 3 -23 6 -55 6 -32 0 -59 -4 -59 -9 0 -4 -7 -6 -15 -2 -8
3 -15 0 -15 -6 0 -6 -3 -9 -6 -6 -3 4 -20 -8 -37 -26 -20 -20 -24 -22 -12 -7
l20 26 -27 -24 c-15 -13 -27 -26 -26 -30 2 -19 -3 -31 -12 -26 -6 4 -7 -1 -3
-11 4 -12 3 -15 -5 -10 -8 5 -10 2 -6 -8 3 -9 2 -16 -3 -16 -5 0 -7 -17 -5
-37 2 -29 1 -34 -7 -23 -7 9 -11 10 -11 3 0 -6 5 -15 11 -19 6 -3 8 -17 4 -31
-3 -14 -2 -22 3 -19 12 7 34 -42 26 -56 -4 -6 -3 -9 2 -6 5 3 18 -6 28 -20 12
-15 14 -22 5 -17 -8 4 -1 -6 15 -23 16 -17 33 -30 37 -29 5 1 20 -11 34 -28
15 -16 24 -23 20 -15 -4 8 1 6 9 -4 9 -11 23 -21 31 -22 17 -2 59 -34 66 -49
2 -5 8 -9 12 -7 4 1 10 -5 13 -13 3 -8 10 -12 15 -9 5 3 12 -2 15 -10 3 -9 10
-13 15 -10 5 3 12 -2 15 -10 3 -9 10 -13 15 -11 4 3 17 -3 29 -15 11 -11 20
-17 20 -12 0 4 7 -2 15 -12 8 -11 15 -16 15 -12 0 4 13 -1 29 -10 17 -10 28
-21 25 -26 -3 -4 3 -5 12 -1 12 4 15 3 10 -5 -5 -8 0 -12 13 -12 11 0 24 -7
29 -16 5 -8 15 -17 23 -18 31 -6 69 -26 69 -36 0 -6 5 -8 10 -5 6 3 10 1 10
-5 0 -6 5 -8 10 -5 6 3 10 1 10 -4 0 -6 9 -11 20 -11 11 0 20 -4 20 -10 0 -5
6 -7 14 -4 7 3 20 -2 29 -10 8 -8 17 -12 21 -9 3 4 6 1 6 -6 0 -7 5 -9 10 -6
6 3 10 1 10 -5 0 -6 4 -9 9 -5 5 3 12 1 16 -4 3 -6 13 -7 22 -4 10 4 14 2 9
-5 -7 -11 29 -28 52 -24 6 2 12 -2 12 -8 0 -6 4 -9 9 -6 13 8 42 -4 35 -15 -3
-5 1 -6 9 -3 8 3 22 -2 31 -11 9 -9 16 -14 16 -10 0 4 7 -1 16 -9 8 -9 20 -14
25 -11 5 4 9 1 9 -5 0 -6 5 -8 10 -5 6 3 10 2 10 -2 0 -5 9 -14 21 -21 17 -11
20 -11 14 0 -3 7 0 5 8 -4 8 -10 17 -15 20 -11 4 3 7 1 7 -6 0 -7 4 -10 9 -6
6 3 15 -4 21 -15 6 -11 15 -18 20 -15 5 3 19 -8 31 -24 12 -17 25 -28 29 -26
4 2 20 -10 36 -27 16 -17 22 -27 14 -23 -13 8 -13 6 -1 -8 7 -9 17 -14 22 -11
5 3 9 0 9 -5 0 -6 0 -13 0 -16 0 -3 9 -14 20 -25 18 -18 25 -39 21 -62 0 -5 4
-8 10 -8 5 0 8 -4 5 -9 -3 -5 0 -14 8 -20 8 -7 13 -25 12 -41 -1 -17 1 -30 5
-30 4 0 7 -36 7 -80 0 -44 -4 -80 -9 -80 -4 0 -6 -12 -3 -26 3 -14 1 -23 -5
-20 -5 3 -7 -3 -4 -14 3 -12 0 -20 -6 -20 -7 0 -9 -4 -6 -10 3 -5 1 -10 -5
-10 -6 0 -8 -4 -5 -10 3 -5 1 -10 -5 -10 -6 0 -9 -4 -6 -9 4 -5 0 -11 -6 -13
-7 -3 -13 -13 -13 -24 0 -10 -7 -19 -15 -19 -9 0 -14 -8 -12 -18 2 -9 -3 -17
-10 -17 -7 0 -30 -19 -51 -42 -21 -24 -36 -36 -32 -28 4 8 -6 2 -20 -15 -15
-16 -24 -23 -20 -15 3 8 -1 6 -9 -4 -9 -11 -16 -16 -16 -11 0 5 -7 0 -16 -11
-8 -10 -13 -12 -9 -4 4 9 0 7 -9 -4 -8 -10 -19 -15 -25 -11 -6 3 -11 1 -11 -5
0 -6 -4 -8 -10 -5 -5 3 -10 2 -10 -3 0 -6 -6 -10 -12 -9 -7 0 -22 -1 -33 -2
-17 -1 -18 -3 -5 -12 12 -8 9 -10 -12 -6 -16 2 -28 0 -28 -5 0 -5 -10 -6 -21
-3 -16 5 -19 4 -14 -5 6 -10 0 -12 -26 -7 -25 5 -30 4 -19 -3 10 -7 -13 -8
-76 -4 -57 4 -93 3 -97 -3 -8 -13 -57 -4 -57 9 0 5 -13 7 -30 3 -18 -4 -30 -2
-30 3 0 6 -9 8 -20 5 -11 -3 -20 -1 -20 5 0 6 -9 8 -20 5 -11 -3 -20 -1 -20 5
0 6 -10 8 -22 4 -14 -3 -19 -1 -14 6 4 8 2 10 -8 6 -8 -3 -28 4 -44 16 -17 12
-35 19 -41 16 -6 -4 -11 -2 -11 4 0 7 -7 10 -15 6 -8 -3 -15 -2 -15 3 0 9 -92
54 -101 49 -3 -2 -13 5 -23 15 -10 9 -22 15 -27 12 -5 -4 -9 -1 -9 4 0 6 -5
11 -10 11 -6 0 -20 9 -32 20 -12 10 -24 17 -28 15 -5 -3 -10 2 -14 10 -3 8
-12 12 -21 9 -10 -4 -15 0 -15 12 0 9 -3 15 -6 12 -3 -3 -17 5 -32 19 -59 54
-65 59 -56 43 4 -8 -33 26 -82 76 -50 50 -94 99 -97 108 -4 10 -11 14 -17 11
-5 -3 -11 -1 -11 4 -1 6 -2 14 -3 19 0 4 -11 17 -24 30 -12 12 -20 27 -17 32
4 6 -1 13 -9 16 -9 3 -13 10 -10 15 3 5 0 9 -5 9 -6 0 -10 3 -9 8 3 10 -81
173 -100 195 -8 9 -12 20 -9 24 4 3 2 12 -4 20 -6 7 -8 13 -5 13 4 0 0 7 -9
16 -9 9 -14 23 -11 30 3 7 1 16 -5 19 -5 4 -7 11 -4 16 4 5 1 9 -5 9 -7 0 -10
6 -7 14 3 8 1 16 -4 18 -6 2 -11 18 -11 36 -1 17 -5 32 -10 32 -5 0 -6 9 -3
20 4 12 2 20 -5 20 -7 0 -10 8 -7 20 3 11 1 22 -4 25 -4 3 -6 12 -2 20 3 8 0
15 -7 15 -7 0 -10 8 -7 20 3 11 1 22 -3 25 -4 3 -6 15 -2 27 4 16 2 19 -8 13
-10 -6 -11 -2 -6 19 5 20 4 26 -5 20 -9 -5 -10 1 -6 25 5 22 3 30 -4 25 -8 -4
-9 4 -4 26 5 25 4 31 -5 25 -10 -6 -12 0 -7 26 5 26 4 30 -4 19 -8 -11 -9 -5
-4 23 5 29 3 37 -6 31 -9 -5 -10 1 -6 25 5 22 3 30 -4 25 -8 -4 -9 4 -4 26 5
25 4 31 -5 25 -10 -6 -12 0 -7 24 5 23 3 30 -5 25 -7 -5 -9 1 -4 19 3 14 2 28
-4 32 -5 3 -7 12 -3 20 3 9 0 21 -6 29 -6 7 -8 22 -4 31 5 13 3 16 -6 10 -10
-6 -12 0 -6 24 4 21 3 31 -5 31 -8 0 -10 9 -6 25 4 15 2 25 -4 25 -7 0 -9 8
-5 19 3 11 1 22 -5 26 -6 3 -8 11 -4 16 3 5 0 16 -6 24 -6 8 -9 19 -5 25 3 5
1 10 -5 10 -6 0 -8 10 -4 26 5 21 4 25 -6 19 -10 -6 -12 -3 -8 13 4 12 2 25
-3 28 -6 3 -7 15 -3 26 4 15 3 18 -6 13 -9 -5 -10 -1 -5 15 4 12 3 20 -1 17
-5 -3 -9 11 -10 31 0 20 -6 38 -11 39 -6 2 -9 13 -6 23 3 11 1 20 -3 20 -5 0
-10 12 -11 27 0 15 -6 29 -12 31 -5 2 -7 10 -4 18 3 8 0 14 -7 14 -7 0 -10 7
-6 15 3 8 1 15 -4 15 -5 0 -7 6 -4 14 3 8 0 17 -5 21 -6 3 -9 11 -6 16 4 5 2
9 -4 9 -6 0 -8 6 -5 14 3 8 0 17 -5 21 -6 3 -9 11 -6 16 4 5 2 9 -2 9 -5 0 -9
10 -10 22 -1 12 -11 35 -23 50 -11 16 -18 33 -15 38 3 6 1 10 -5 10 -6 0 -8 4
-5 10 3 5 -2 24 -12 42 -9 18 -18 39 -19 47 -2 8 -6 17 -11 20 -4 3 -9 13 -11
21 -2 8 -10 22 -18 31 -8 9 -11 19 -7 22 3 4 1 7 -6 7 -7 0 -9 5 -6 10 3 6 1
10 -5 10 -6 0 -9 4 -6 9 3 5 -1 12 -10 15 -8 3 -13 10 -9 16 3 5 -3 18 -15 30
-11 11 -20 24 -20 28 0 5 -18 28 -40 51 -22 23 -39 43 -37 45 1 2 -28 34 -65
71 -38 37 -68 65 -68 62 0 -4 -11 5 -25 19 -14 14 -30 22 -37 18 -6 -4 -8 -3
-5 3 8 13 -137 88 -152 79 -6 -4 -11 -2 -11 4 0 7 -7 10 -15 6 -8 -3 -15 0
-15 5 0 7 -11 9 -25 7 -14 -3 -22 -1 -19 4 4 6 -9 8 -29 7 -20 -2 -39 0 -43 4
-11 10 -112 9 -119 -2 -3 -5 -17 -8 -30 -5 -64 11 -282 -77 -352 -143 -19 -17
-41 -34 -49 -37 -8 -3 -12 -11 -9 -16 4 -6 1 -9 -7 -8 -7 2 -12 -3 -10 -10 1
-8 -2 -11 -7 -7 -14 8 -143 -156 -136 -173 3 -7 1 -11 -4 -8 -10 6 -53 -69
-44 -78 3 -3 1 -6 -5 -6 -6 0 -18 -13 -27 -30 -9 -16 -13 -30 -10 -30 4 0 -1
-7 -9 -16 -9 -8 -14 -20 -11 -25 4 -5 1 -9 -5 -9 -7 0 -9 -7 -6 -16 3 -8 2
-13 -3 -10 -11 7 -23 -22 -14 -36 3 -7 1 -8 -5 -4 -10 6 -18 -17 -9 -27 1 -2
-6 -12 -16 -22 -10 -10 -16 -26 -14 -37 3 -11 1 -16 -6 -11 -6 4 -8 0 -4 -10
4 -10 2 -17 -4 -17 -6 0 -8 -7 -5 -16 3 -8 2 -13 -3 -9 -8 4 -22 -36 -23 -62
0 -5 -5 -14 -11 -22 -9 -12 -9 -13 1 -7 17 10 15 1 -4 -19 -9 -8 -17 -27 -18
-40 0 -14 -5 -25 -10 -25 -4 0 -6 -9 -3 -20 3 -12 1 -18 -5 -14 -7 5 -9 -2 -6
-19 3 -17 1 -24 -5 -20 -6 4 -8 0 -4 -10 3 -10 2 -17 -4 -17 -6 0 -8 -9 -4
-20 3 -11 2 -20 -3 -20 -6 0 -8 -9 -5 -20 3 -11 1 -20 -5 -20 -6 0 -8 -9 -5
-20 3 -13 0 -20 -8 -20 -12 0 -12 -2 -1 -9 11 -6 10 -11 -3 -25 -9 -9 -14 -23
-11 -31 3 -8 0 -15 -5 -15 -6 0 -9 -9 -6 -20 3 -11 1 -20 -5 -20 -5 0 -7 -14
-4 -30 3 -20 1 -28 -6 -23 -7 4 -9 -2 -6 -15 4 -12 2 -22 -3 -22 -5 0 -7 -11
-5 -25 3 -17 1 -23 -6 -19 -7 5 -9 -1 -5 -19 9 -34 -2 -88 -17 -80 -8 4 -8 3
0 -6 6 -7 9 -23 6 -37 -3 -19 -7 -22 -13 -12 -6 8 -7 -5 -3 -32 4 -34 3 -41
-6 -30 -8 12 -9 6 -5 -25 5 -31 4 -37 -5 -25 -9 12 -10 11 -5 -7 3 -12 1 -24
-5 -28 -6 -4 -8 -20 -4 -42 5 -27 4 -34 -6 -28 -9 6 -10 0 -5 -24 4 -20 3 -31
-5 -31 -7 0 -9 -13 -5 -37 5 -29 4 -35 -5 -23 -8 11 -9 3 -5 -35 5 -35 3 -46
-4 -36 -7 11 -8 2 -5 -30 4 -33 3 -40 -5 -29 -9 11 -10 4 -5 -30 4 -35 3 -42
-6 -30 -9 12 -10 8 -5 -17 4 -22 3 -33 -5 -33 -6 0 -10 -10 -9 -22 1 -13 -1
-31 -6 -41 -4 -9 -5 -26 -2 -37 3 -11 1 -20 -4 -20 -6 0 -7 -16 -4 -37 5 -29
4 -34 -4 -23 -8 11 -10 2 -6 -35 3 -29 2 -42 -3 -32 -5 12 -8 -2 -8 -40 1 -81
-13 -155 -26 -147 -7 5 -9 -5 -4 -31 5 -26 4 -35 -4 -30 -8 5 -10 -3 -6 -30 4
-26 3 -34 -6 -29 -8 5 -9 -2 -5 -24 4 -20 2 -32 -4 -32 -6 0 -8 -9 -4 -19 3
-11 1 -22 -4 -25 -5 -4 -7 -23 -5 -44 5 -29 3 -34 -6 -22 -9 12 -10 8 -5 -19
5 -23 4 -31 -4 -27 -7 5 -9 -4 -5 -26 5 -26 3 -30 -6 -18 -9 12 -10 10 -6 -12
4 -16 2 -28 -2 -28 -5 0 -7 -12 -4 -26 4 -20 2 -25 -8 -19 -9 5 -10 2 -5 -15
5 -16 4 -20 -5 -15 -9 5 -10 2 -5 -14 3 -11 2 -21 -3 -21 -6 0 -8 -10 -4 -22
3 -14 1 -19 -6 -14 -8 5 -10 2 -6 -8 3 -9 2 -16 -4 -16 -6 0 -8 -10 -4 -22 3
-14 1 -19 -6 -14 -8 5 -10 2 -6 -8 3 -9 2 -16 -4 -16 -6 0 -8 -10 -4 -22 3
-13 1 -19 -5 -15 -12 8 -26 -20 -17 -34 3 -5 0 -9 -6 -9 -6 0 -8 -4 -5 -10 3
-5 1 -10 -5 -10 -6 0 -9 -4 -6 -9 3 -5 -1 -12 -10 -15 -9 -4 -14 -13 -10 -22
3 -8 2 -13 -3 -10 -5 3 -14 -1 -21 -9 -16 -20 -31 -7 -55 45 -10 22 -22 40
-28 40 -5 0 -7 7 -3 15 3 8 1 15 -4 15 -5 0 -7 7 -4 15 4 8 1 15 -6 15 -7 0
-10 7 -6 16 4 9 2 13 -5 8 -8 -4 -9 1 -4 15 3 11 2 21 -3 21 -6 0 -8 9 -5 20
3 11 1 20 -5 20 -6 0 -11 8 -11 18 -1 37 -5 52 -12 52 -5 0 -6 7 -3 15 4 8 1
15 -6 15 -7 0 -9 8 -5 20 4 12 2 20 -5 20 -7 0 -9 8 -5 21 5 16 4 19 -5 14
-10 -6 -11 -1 -6 19 5 20 4 26 -5 20 -8 -5 -10 1 -7 20 3 14 2 29 -2 31 -5 3
-6 14 -3 25 3 12 0 20 -7 20 -7 0 -10 8 -7 20 3 11 1 20 -3 20 -5 0 -7 11 -5
25 1 14 -1 25 -5 25 -5 0 -7 11 -5 25 1 14 -1 25 -5 25 -4 0 -5 11 -2 25 2 15
0 25 -8 25 -8 0 -9 10 -5 31 6 24 4 30 -5 24 -10 -6 -12 -1 -7 23 4 20 2 32
-4 32 -7 0 -9 10 -5 24 3 14 2 28 -4 31 -6 3 -7 18 -4 33 4 22 3 24 -6 12 -9
-12 -10 -7 -5 22 3 22 1 39 -5 43 -6 4 -9 14 -6 22 3 8 3 20 -1 26 -4 7 -8 29
-9 50 -1 21 -7 44 -13 51 -6 7 -9 20 -5 29 3 8 0 18 -6 22 -6 4 -8 15 -5 26 4
11 2 19 -5 19 -6 0 -8 10 -4 25 3 14 2 25 -4 25 -6 0 -8 9 -5 20 3 12 0 20 -7
20 -7 0 -10 8 -7 20 3 11 1 20 -3 20 -5 0 -7 11 -4 25 2 14 0 25 -5 25 -5 0
-7 9 -4 20 3 12 0 20 -7 20 -7 0 -10 7 -6 16 3 8 -1 22 -9 30 -8 9 -15 21 -15
27 0 7 5 6 11 -3 9 -12 10 -12 5 3 -3 10 -6 23 -6 28 0 6 -5 7 -12 3 -8 -5 -9
0 -6 14 4 12 2 24 -3 27 -4 3 -6 12 -2 20 3 8 0 15 -6 15 -6 0 -8 7 -5 15 4 8
1 15 -5 15 -6 0 -8 7 -5 15 4 8 1 15 -6 15 -6 0 -9 4 -6 9 7 11 -26 101 -37
101 -4 0 -6 4 -2 9 3 5 -1 16 -9 24 -8 8 -12 17 -9 21 4 3 1 6 -5 6 -7 0 -11
3 -10 8 3 12 -13 52 -21 52 -4 0 -8 6 -8 13 0 18 -53 107 -64 107 -5 0 -9 6
-9 14 0 8 -7 17 -16 20 -8 3 -13 10 -10 15 3 5 -2 15 -11 22 -14 12 -16 12 -8
0 5 -10 4 -12 -3 -7 -7 4 -12 13 -12 21 0 16 -100 106 -111 100 -4 -3 -9 2
-13 10 -3 9 -12 12 -22 8 -10 -4 -15 -2 -11 4 8 12 -60 46 -75 37 -7 -5 -8 -2
-3 6 6 10 4 12 -8 7 -10 -4 -17 -2 -17 4 0 7 -10 9 -26 5 -18 -5 -24 -3 -19 5
5 8 1 9 -13 5 -11 -4 -23 -2 -27 4 -3 5 -36 10 -73 9 -47 0 -61 -3 -47 -9 17
-7 15 -9 -12 -9 -17 -1 -39 -4 -49 -8 -12 -4 -15 -3 -10 5 4 7 2 12 -3 12 -6
0 -11 -5 -11 -11 0 -6 -9 -8 -20 -4 -12 4 -20 2 -20 -5 0 -7 -7 -10 -15 -6 -8
3 -15 1 -15 -5 0 -6 -4 -7 -10 -4 -5 3 -10 2 -10 -4 0 -6 -7 -8 -15 -5 -8 4
-17 -1 -21 -10 -3 -9 -10 -13 -15 -10 -5 3 -21 -8 -36 -23 -14 -15 -23 -21
-19 -13 5 9 2 8 -7 -2 -8 -10 -17 -18 -21 -18 -7 0 -135 -126 -156 -154 -13
-18 -13 -19 0 -12 8 4 4 -2 -10 -14 -14 -12 -18 -19 -10 -15 8 4 4 -3 -10 -14
-14 -11 -21 -21 -17 -21 4 0 -1 -10 -12 -22 -11 -11 -18 -25 -15 -30 3 -4 0
-8 -6 -8 -6 0 -8 -4 -5 -10 3 -5 1 -10 -5 -10 -6 0 -8 -4 -5 -10 3 -5 1 -10
-5 -10 -6 0 -8 -4 -5 -10 3 -5 1 -10 -5 -10 -6 0 -8 -4 -5 -10 3 -5 1 -10 -5
-10 -6 0 -8 -4 -5 -10 3 -5 1 -10 -5 -10 -6 0 -9 -4 -6 -9 4 -5 2 -11 -4 -13
-6 -2 -12 -14 -15 -27 -2 -12 -9 -29 -15 -37 -7 -7 -9 -18 -5 -24 3 -5 2 -10
-3 -10 -6 0 -8 -10 -4 -22 4 -16 2 -19 -8 -13 -10 6 -12 4 -7 -8 3 -10 2 -17
-4 -17 -6 0 -8 -4 -4 -9 3 -5 0 -13 -6 -16 -5 -4 -8 -13 -5 -21 3 -8 0 -14 -5
-14 -6 0 -9 -9 -6 -20 3 -12 1 -18 -5 -14 -7 5 -9 -2 -4 -20 5 -19 3 -26 -4
-21 -7 4 -9 -2 -6 -19 3 -17 1 -24 -6 -20 -7 5 -9 -2 -4 -20 5 -20 4 -26 -5
-20 -9 5 -10 2 -6 -9 3 -9 2 -19 -3 -22 -5 -3 -7 -20 -3 -37 4 -23 3 -29 -6
-24 -9 6 -10 0 -5 -20 5 -20 4 -25 -6 -19 -9 6 -10 0 -5 -24 4 -17 3 -31 -3
-31 -5 0 -7 -12 -4 -26 4 -20 2 -25 -7 -19 -9 5 -11 -1 -8 -24 4 -21 2 -29 -5
-25 -8 5 -9 -3 -5 -24 4 -19 2 -32 -3 -32 -6 0 -10 -5 -10 -11 0 -5 3 -8 8 -6
4 3 5 -28 2 -68 -3 -43 -1 -71 4 -67 5 3 7 -5 3 -17 -3 -13 -3 -20 0 -17 8 8
44 -45 38 -55 -3 -4 3 -13 12 -20 14 -12 16 -12 9 1 -5 8 4 2 19 -15 14 -16
24 -24 20 -17 -10 19 13 14 35 -8 10 -10 28 -17 39 -15 11 2 23 0 26 -6 4 -5
17 -9 31 -9 14 0 23 4 20 8 -3 4 8 7 25 6 16 -1 29 2 29 7 0 4 7 5 17 2 12 -5
14 -3 8 7 -5 9 -4 11 4 6 12 -8 77 52 73 67 -1 4 3 7 9 7 5 0 7 5 4 10 -3 6
-1 10 5 10 6 0 9 4 5 9 -3 5 0 13 6 16 5 4 8 13 5 21 -3 8 -1 14 3 14 5 0 7 9
4 20 -3 12 0 20 7 20 8 0 10 8 6 24 -3 14 -1 28 5 32 6 3 8 16 5 27 -3 12 0
27 5 34 6 7 12 35 12 62 1 27 5 47 9 45 4 -3 7 4 8 13 4 69 6 80 14 75 5 -3 7
5 4 16 -4 12 -2 22 2 22 5 0 7 8 6 18 -2 9 1 20 7 23 5 4 10 19 10 33 0 15 3
29 8 32 4 2 6 11 2 19 -3 8 -1 15 5 15 6 0 8 10 4 22 -4 16 -2 19 8 13 10 -6
12 -4 7 8 -3 10 -2 17 4 17 6 0 8 4 4 9 -3 5 -1 12 5 16 6 4 8 11 5 16 -4 5
-2 9 3 9 6 0 13 7 16 16 4 10 2 13 -7 9 -6 -4 -5 -1 3 7 8 7 15 19 16 26 2 29
5 33 14 27 5 -3 7 0 4 8 -3 9 4 21 15 29 12 8 18 18 14 21 -3 4 -1 7 6 7 7 0
10 4 7 9 -3 5 1 11 9 15 8 3 15 12 15 21 0 8 5 15 11 15 5 0 7 5 4 10 -4 6 -1
9 7 8 7 -2 12 3 10 10 -1 8 2 11 7 8 5 -3 14 1 20 8 11 13 28 14 94 3 26 -5
78 -57 70 -69 -3 -6 -1 -8 4 -5 12 7 28 -20 32 -54 0 -5 5 -8 10 -5 11 7 23
-22 14 -36 -4 -7 -1 -8 7 -3 10 6 12 4 7 -9 -4 -9 -3 -14 2 -11 12 7 25 -31
16 -45 -3 -5 -1 -10 5 -10 6 0 8 -4 5 -10 -3 -5 -1 -10 5 -10 7 0 10 -7 6 -15
-3 -8 -1 -15 5 -15 6 0 9 -7 5 -15 -3 -8 0 -15 5 -15 6 0 9 -9 6 -20 -3 -11
-1 -20 5 -20 6 0 7 -7 4 -16 -4 -10 -2 -13 6 -8 7 5 9 -1 6 -19 -3 -16 -1 -24
5 -20 6 4 8 -4 5 -20 -3 -15 -1 -24 3 -21 11 7 23 -41 16 -66 -3 -13 -1 -18 5
-14 7 5 9 -2 4 -20 -4 -17 -3 -25 3 -22 11 7 26 -68 16 -84 -3 -5 -1 -10 5
-10 8 0 10 -9 6 -26 -5 -18 -3 -24 5 -18 9 5 10 -3 5 -32 -4 -22 -3 -34 2 -27
5 8 12 -5 18 -37 6 -28 7 -50 2 -50 -4 0 -8 -5 -8 -11 0 -5 4 -8 9 -5 12 8 24
-59 15 -86 -4 -15 -3 -18 6 -13 10 6 12 0 7 -26 -5 -26 -4 -30 4 -19 8 11 9 6
5 -23 -3 -26 -1 -35 6 -31 8 5 9 -3 5 -27 -4 -20 -3 -29 2 -21 8 14 14 -5 28
-83 2 -16 8 -49 13 -72 4 -24 4 -43 -1 -43 -5 0 -9 -5 -9 -11 0 -5 5 -7 10 -4
7 4 8 -3 4 -21 -5 -21 -4 -25 6 -19 10 6 12 1 7 -26 -5 -26 -4 -30 4 -19 8 12
10 8 6 -17 -2 -18 1 -33 6 -33 5 0 7 -9 4 -20 -3 -11 -1 -20 5 -20 6 0 8 -9 5
-20 -3 -13 -1 -18 5 -13 8 4 9 -4 5 -26 -5 -23 -3 -30 5 -25 7 5 9 -1 4 -19
-3 -14 -2 -28 4 -32 5 -3 6 -13 3 -22 -5 -12 -3 -14 7 -8 10 6 12 3 8 -11 -3
-11 1 -26 9 -33 9 -8 12 -22 8 -38 -4 -18 -2 -23 6 -17 9 5 10 1 7 -14 -4 -14
-2 -20 4 -16 6 4 8 -2 3 -16 -5 -15 -3 -20 3 -16 12 7 26 -29 17 -44 -3 -5 -1
-10 5 -10 7 0 9 -7 6 -16 -4 -9 -2 -13 5 -8 8 4 9 -1 4 -16 -4 -14 -3 -20 3
-16 11 7 25 -21 16 -35 -3 -5 0 -9 6 -9 6 0 8 -4 5 -10 -3 -5 -1 -10 5 -10 6
0 8 -4 5 -10 -3 -5 -1 -10 5 -10 6 0 8 -4 5 -10 -3 -5 -1 -10 5 -10 6 0 8 -4
5 -10 -3 -5 -1 -10 5 -10 6 0 8 -4 5 -10 -3 -5 -1 -10 4 -10 6 0 11 -7 11 -15
0 -8 9 -19 21 -25 11 -7 18 -14 16 -17 -3 -2 23 -30 56 -60 34 -31 74 -69 89
-85 16 -16 32 -26 38 -23 5 3 10 1 10 -5 0 -6 5 -8 10 -5 6 3 10 2 10 -4 0 -6
7 -8 15 -5 8 4 15 2 15 -4 0 -6 10 -8 22 -4 16 4 19 2 13 -8 -6 -10 -4 -12 9
-7 10 4 22 4 28 1 14 -9 158 -11 158 -2 0 4 12 5 26 2 18 -3 23 -1 18 7 -5 9
-1 10 14 7 12 -4 22 -2 22 3 0 4 7 5 17 2 10 -4 14 -2 10 4 -4 6 0 14 9 17 9
3 12 2 8 -5 -3 -6 3 -5 15 3 12 7 21 16 21 21 0 4 4 6 9 3 5 -3 17 5 27 19 10
13 21 22 25 20 4 -3 23 15 44 40 20 25 33 45 28 45 -4 0 0 5 10 11 9 5 17 17
17 24 0 8 5 15 12 15 6 0 9 3 5 6 -3 4 0 13 8 21 8 8 15 23 15 34 0 11 4 18 9
15 10 -6 31 37 31 64 0 11 4 20 8 20 4 0 9 10 9 22 1 13 7 24 12 26 5 2 7 10
4 18 -3 8 0 14 7 14 7 0 10 7 6 15 -3 8 -1 15 5 15 6 0 9 7 5 15 -3 8 -1 15 5
15 6 0 8 4 4 9 -3 5 -1 13 5 16 6 4 8 15 5 26 -4 11 -2 19 5 19 7 0 10 6 7 14
-3 7 -1 18 4 23 6 6 11 26 12 46 1 19 6 32 11 29 5 -3 7 5 4 16 -4 12 -2 22 4
22 6 0 8 7 5 15 -4 8 -1 17 4 21 6 3 9 15 6 25 -3 11 -1 19 4 19 5 0 6 14 2
32 -4 22 -3 29 5 24 8 -5 11 3 8 24 -2 17 1 33 6 36 5 3 7 12 4 20 -3 8 -1 14
4 14 5 0 7 12 6 28 -2 15 1 30 6 33 6 4 11 29 11 58 1 28 5 51 10 51 4 0 5 11
3 25 -3 14 0 25 5 25 5 0 6 16 3 36 -4 24 -2 34 5 30 7 -5 9 3 5 24 -5 20 -3
30 6 30 8 0 10 13 7 40 -2 22 0 37 5 34 5 -3 7 10 5 30 -3 21 0 33 5 30 5 -4
9 4 7 17 -1 13 1 32 5 41 4 9 5 22 1 28 -4 6 -1 17 5 25 7 8 10 21 7 30 -4 8
-2 17 3 20 6 4 7 25 4 48 -4 32 -3 38 5 27 8 -11 10 -5 7 27 -2 28 0 41 7 36
6 -4 8 3 3 20 -3 15 -1 29 5 33 6 3 9 19 5 35 -3 16 -1 29 4 29 6 0 8 16 6 35
-3 23 -1 33 6 29 7 -5 9 2 6 20 -3 14 -2 26 2 26 9 0 30 139 23 158 -5 11 -3
13 7 7 10 -6 12 0 8 24 -2 17 0 31 5 31 5 0 7 13 4 30 -4 17 -2 30 3 30 6 0 8
11 6 25 -3 16 -1 23 6 19 7 -4 8 4 3 25 -4 21 -3 31 5 31 7 0 10 6 7 14 -3 7
-1 18 5 24 5 5 11 28 11 50 1 22 6 38 11 35 4 -3 5 4 1 16 -4 13 -2 21 5 21 7
0 10 8 7 20 -3 11 -1 20 5 20 5 0 6 9 3 20 -3 11 -2 20 3 20 6 0 8 9 5 20 -3
11 -1 20 5 20 6 0 9 9 7 20 -3 13 0 18 7 14 7 -5 9 0 6 14 -3 12 -1 23 5 25 6
2 11 19 11 39 1 20 4 34 9 31 6 -4 11 15 10 45 -1 6 2 12 6 12 6 0 31 73 34
97 0 4 6 19 13 32 7 14 11 28 8 33 -3 4 0 8 6 8 6 0 9 4 5 9 -3 5 -1 12 5 16
6 4 8 11 5 16 -4 5 -1 9 5 9 6 0 8 5 5 10 -3 6 -2 10 4 10 6 0 8 8 4 18 -3 9
-2 14 2 10 11 -10 47 71 38 85 -3 6 -1 7 5 3 7 -4 12 -1 12 8 0 9 5 16 11 16
5 0 7 5 4 10 -3 6 -1 10 5 10 6 0 9 4 5 9 -3 6 4 15 16 21 11 7 18 14 15 17
-3 3 5 14 17 24 12 10 18 18 14 19 -13 0 33 42 88 80 28 19 53 39 56 43 3 4
13 5 22 1 10 -3 17 -1 17 5 0 6 18 11 41 11 22 0 38 -4 34 -9 -3 -5 8 -9 25
-9 19 1 36 -6 45 -18 8 -10 15 -15 15 -10 0 4 9 -2 21 -15 11 -13 17 -17 13
-9 -4 8 12 -3 35 -25 41 -39 51 -52 29 -39 -7 4 -8 3 -4 -4 4 -7 14 -12 23
-12 10 0 13 -6 9 -16 -3 -8 -2 -12 4 -9 6 3 10 1 10 -4 0 -20 3 -26 19 -38 9
-7 13 -13 9 -13 -5 0 1 -9 13 -21 11 -11 18 -27 15 -35 -3 -8 -2 -13 3 -10 11
7 33 -43 25 -56 -4 -7 -2 -8 4 -4 11 7 14 3 16 -26 1 -7 7 -18 14 -24 8 -5 15
-22 15 -36 1 -14 6 -24 11 -20 5 3 7 -2 3 -11 -3 -10 -2 -17 3 -17 5 0 6 -7 3
-17 -4 -11 -3 -14 5 -9 11 6 18 -19 13 -46 0 -5 3 -8 9 -8 5 0 7 -7 4 -15 -4
-9 1 -18 11 -21 13 -5 14 -9 3 -15 -11 -7 -11 -9 1 -9 7 0 11 -6 8 -15 -4 -8
-2 -17 3 -20 5 -3 6 -13 3 -22 -5 -12 -3 -14 6 -8 10 5 11 2 6 -14 -4 -13 -2
-21 5 -21 7 0 10 -7 6 -15 -3 -8 -1 -15 5 -15 6 0 8 -9 4 -21 -5 -16 -4 -19 6
-14 9 6 11 2 7 -13 -4 -12 -2 -22 4 -22 6 0 7 -11 4 -26 -4 -15 -3 -23 3 -20
11 7 35 -88 27 -110 -4 -9 -2 -12 5 -8 8 4 9 -4 4 -27 -5 -27 -4 -31 5 -19 9
12 11 8 6 -17 -3 -19 -1 -33 4 -33 6 0 8 -11 4 -25 -4 -16 -2 -25 6 -25 7 0 9
-8 5 -19 -3 -11 -2 -22 3 -25 5 -3 7 -18 5 -33 -4 -23 -2 -25 7 -13 9 12 10 6
5 -25 -4 -31 -3 -37 5 -25 9 12 10 7 6 -23 -3 -26 -1 -35 6 -31 8 5 9 -5 5
-32 -5 -29 -4 -35 4 -24 8 11 9 5 5 -23 -2 -20 -1 -35 3 -32 5 2 11 -6 13 -20
3 -13 1 -22 -3 -19 -5 3 -9 -2 -9 -11 0 -9 4 -13 10 -10 6 4 8 -11 5 -37 -4
-33 -3 -39 5 -23 8 15 9 9 5 -27 -2 -28 0 -50 6 -54 7 -4 8 -21 5 -43 -5 -24
-4 -31 3 -22 11 18 26 -75 26 -167 0 -38 3 -55 7 -45 5 10 6 -6 3 -35 -4 -35
-2 -51 5 -47 6 4 8 -6 4 -29 -3 -24 -1 -36 6 -36 8 0 9 -11 5 -32 -5 -26 -4
-30 5 -18 9 12 10 5 6 -28 -5 -32 -3 -42 5 -36 9 5 10 -4 5 -32 -5 -30 -4 -36
4 -24 9 12 10 7 6 -23 -3 -25 -1 -35 6 -31 7 5 9 -2 6 -20 -3 -14 -2 -26 2
-26 4 0 8 -15 8 -32 2 -60 3 -68 14 -68 6 0 8 -9 5 -20 -3 -11 -1 -22 4 -25 4
-3 5 -13 2 -22 -5 -12 -3 -14 7 -8 10 6 12 2 8 -19 -3 -14 -2 -29 3 -32 4 -2
5 -12 2 -21 -5 -12 -3 -14 7 -8 10 6 11 2 6 -19 -5 -20 -4 -26 5 -20 9 5 10 1
7 -14 -4 -12 -2 -22 4 -22 6 0 8 -9 5 -20 -3 -11 -1 -20 4 -20 4 0 5 -7 2 -17
-5 -11 -3 -14 6 -8 10 5 11 2 6 -14 -4 -12 -2 -21 4 -21 6 0 7 -7 4 -17 -5
-12 -3 -14 7 -8 10 6 12 3 8 -13 -4 -12 -2 -22 4 -22 5 0 6 -5 2 -12 -4 -6 1
-17 11 -24 10 -7 15 -20 12 -29 -4 -8 -2 -15 2 -15 5 0 12 -7 15 -16 3 -8 2
-12 -4 -9 -6 3 -7 -1 -4 -9 3 -9 11 -16 16 -16 6 0 8 -7 4 -15 -3 -8 -1 -15 5
-15 6 0 7 -4 4 -10 -3 -5 -1 -10 5 -10 6 0 8 -4 5 -10 -3 -5 -1 -10 5 -10 6 0
8 -4 5 -10 -3 -5 -2 -10 4 -10 6 0 7 -7 4 -17 -4 -11 -3 -14 5 -9 11 6 17 -5
13 -26 0 -5 4 -8 11 -8 6 0 9 -3 5 -6 -3 -4 1 -13 9 -21 8 -8 12 -19 9 -24 -4
-5 -1 -9 5 -9 6 0 8 -4 5 -10 -3 -5 -1 -10 5 -10 6 0 8 -4 5 -10 -3 -5 -1 -10
5 -10 6 0 8 -4 5 -10 -3 -5 -1 -10 5 -10 6 0 8 -4 5 -10 -3 -5 -1 -10 6 -10 7
0 9 -3 6 -7 -4 -3 2 -13 14 -21 11 -8 18 -20 15 -29 -3 -8 -1 -11 4 -8 9 6 14
-8 11 -27 0 -5 4 -8 10 -8 5 0 7 -4 4 -10 -3 -5 1 -10 10 -10 10 0 13 -5 9
-11 -4 -7 4 -20 17 -31 13 -11 18 -16 10 -12 -8 4 0 -14 19 -39 18 -26 37 -47
42 -47 4 0 7 -6 5 -12 -1 -7 3 -12 8 -11 6 0 19 -11 30 -25 19 -27 19 -27 0
-13 -11 8 -2 -3 20 -24 22 -21 33 -34 25 -30 -8 4 10 -16 40 -45 30 -29 46
-47 35 -39 -20 13 -20 13 -1 -8 10 -13 23 -20 27 -17 5 3 9 1 9 -3 0 -10 137
-158 148 -159 20 -2 41 -17 36 -26 -3 -5 3 -12 14 -15 11 -3 23 -12 26 -20 3
-8 10 -12 15 -8 5 3 17 -5 26 -17 8 -13 18 -22 20 -20 13 6 25 0 56 -30 19
-18 37 -32 42 -30 4 1 7 -3 7 -10 0 -6 3 -8 7 -5 3 4 12 -1 20 -11 10 -11 12
-12 8 -2 -5 12 -4 12 7 -1 13 -16 19 -19 39 -19 5 0 7 -4 4 -10 -3 -6 1 -7 9
-4 9 4 18 0 22 -9 3 -9 11 -14 17 -11 7 2 27 -10 46 -26 36 -32 46 -37 35 -17
-4 6 3 2 15 -10 24 -25 36 -30 26 -10 -4 6 -1 5 7 -3 7 -8 19 -15 26 -16 28
-2 33 -4 27 -13 -3 -6 4 -8 15 -6 12 2 23 -2 26 -10 3 -8 13 -11 21 -8 12 5
14 3 8 -7 -6 -10 -4 -12 8 -7 9 3 17 1 19 -4 2 -6 15 -12 30 -12 14 -1 24 -6
21 -11 -3 -4 5 -5 17 -1 14 4 20 3 16 -3 -3 -5 2 -9 12 -8 28 1 112 -26 106
-35 -3 -5 2 -6 10 -3 9 3 16 1 16 -5 0 -6 6 -8 14 -5 8 3 17 1 20 -4 3 -6 16
-8 28 -4 15 4 19 2 13 -7 -5 -10 -2 -11 14 -6 12 4 21 2 21 -4 0 -6 13 -8 33
-5 25 5 29 3 17 -6 -12 -9 -11 -10 7 -5 25 7 95 -4 89 -14 -2 -3 20 -6 49 -7
29 0 59 -5 67 -12 9 -7 29 -9 51 -5 20 3 42 1 49 -5 7 -5 48 -9 90 -7 47 1 75
-2 72 -7 -4 -6 43 -8 122 -4 71 3 157 6 192 6 34 1 62 5 62 10 0 5 19 7 42 4
26 -2 45 1 50 8 4 8 32 13 72 13 35 0 62 3 60 6 -2 4 7 9 21 11 13 3 26 0 28
-6 3 -8 8 -8 17 1 7 6 18 9 25 7 7 -3 16 -1 19 5 4 6 13 8 21 4 8 -3 15 0 15
6 0 7 9 9 25 5 16 -4 25 -2 25 6 0 7 8 9 19 5 13 -4 23 0 30 12 7 12 10 13 11
4 0 -11 3 -11 15 -1 8 6 19 9 25 5 5 -3 10 -1 10 5 0 7 7 10 15 6 8 -3 15 -1
15 5 0 6 7 8 16 5 10 -4 13 -2 8 6 -5 7 0 9 14 6 12 -4 22 -2 22 3 0 4 6 6 13
3 7 -2 44 7 83 22 147 56 158 50 38 -19 -41 -24 -71 -47 -67 -51 4 -4 0 -4
-10 0 -10 3 -17 1 -17 -5 0 -6 -3 -10 -7 -10 -20 3 -34 -2 -29 -10 7 -11 -22
-23 -35 -15 -5 3 -9 0 -9 -5 0 -6 -3 -10 -7 -10 -25 4 -43 -3 -43 -16 0 -14
-14 -19 -47 -18 -7 1 -13 -4 -13 -9 0 -6 -7 -8 -15 -4 -8 3 -15 1 -15 -5 0 -6
-4 -7 -10 -4 -5 3 -10 1 -10 -5 0 -7 -7 -9 -16 -6 -10 4 -13 2 -8 -6 5 -8 2
-9 -9 -5 -10 3 -17 2 -17 -3 0 -5 -7 -6 -17 -3 -11 4 -14 3 -9 -5 5 -8 2 -10
-8 -6 -9 3 -16 1 -16 -5 0 -6 -7 -8 -17 -4 -10 4 -14 2 -10 -4 5 -7 0 -9 -13
-6 -11 3 -20 0 -20 -6 0 -6 -7 -8 -17 -4 -10 4 -14 2 -10 -4 4 -6 -4 -8 -21
-6 -22 4 -24 2 -12 -7 12 -8 9 -9 -12 -4 -16 3 -28 2 -28 -2 0 -5 -16 -10 -35
-11 -19 -1 -42 -9 -51 -17 -17 -18 -28 -21 -19 -6 3 6 2 10 -4 10 -5 0 -11 -5
-13 -11 -5 -14 -87 -31 -118 -24 -20 4 -22 3 -10 -5 12 -9 5 -10 -28 -7 -28 3
-40 2 -35 -5 4 -8 -7 -9 -35 -5 -25 5 -43 3 -47 -4 -4 -6 -19 -7 -36 -4 -16 4
-34 3 -41 -2 -7 -4 -39 -6 -71 -5 -42 2 -57 0 -52 -8 8 -14 -264 -12 -281 2
-7 4 -41 7 -77 5 -38 -2 -64 0 -61 5 4 5 -11 7 -34 3 -24 -3 -43 -1 -47 5 -4
6 -22 7 -47 3 -28 -4 -39 -3 -35 5 5 7 -7 8 -35 5 -33 -5 -40 -3 -33 8 7 11 6
12 -6 3 -10 -7 -28 -7 -64 1 -32 7 -45 14 -35 18 8 4 0 4 -17 1 -21 -3 -33 -1
-33 5 0 6 -5 11 -11 11 -5 0 -7 -6 -3 -12 4 -7 -2 -5 -13 5 -11 10 -27 15 -37
11 -9 -3 -16 -1 -16 6 0 7 -8 9 -20 5 -12 -4 -20 -2 -20 5 0 8 -9 10 -26 6
-18 -5 -24 -3 -19 5 5 8 1 9 -15 4 -17 -6 -21 -4 -14 6 6 12 5 12 -8 1 -13
-10 -17 -10 -21 2 -4 9 -14 12 -28 9 -15 -4 -20 -3 -15 5 5 8 2 10 -8 6 -9 -3
-16 -1 -16 6 0 6 -4 9 -9 5 -5 -3 -13 0 -16 6 -4 5 -13 8 -21 5 -8 -3 -14 -1
-14 4 0 5 -7 7 -15 4 -8 -4 -15 -1 -15 6 0 7 -7 10 -16 6 -8 -3 -13 -2 -10 3
3 5 -1 12 -10 15 -8 3 -12 2 -9 -4 3 -6 1 -10 -5 -10 -6 0 -13 7 -17 16 -5 13
-7 13 -14 2 -7 -10 -9 -11 -9 0 0 7 -5 10 -10 7 -6 -3 -13 0 -16 9 -3 9 -12
12 -21 9 -11 -4 -14 -2 -9 5 7 11 3 14 -26 16 -7 1 -19 7 -26 14 -8 7 -18 10
-23 7 -5 -4 -9 -1 -9 5 0 6 -4 8 -10 5 -5 -3 -10 -1 -10 5 0 6 -5 8 -12 4 -6
-4 -17 1 -25 11 -7 11 -13 15 -13 11 0 -4 -7 0 -16 8 -8 9 -20 14 -25 11 -5
-4 -9 -2 -9 3 0 6 -8 9 -17 8 -10 0 -17 4 -16 11 2 8 -4 10 -14 6 -11 -4 -14
-3 -9 5 5 8 1 10 -10 5 -13 -5 -15 -3 -9 7 5 9 4 11 -3 6 -6 -4 -20 2 -31 13
-11 11 -22 17 -25 14 -3 -4 -6 -1 -6 5 0 7 -9 12 -19 12 -11 0 -34 15 -52 33
-18 17 -29 25 -25 17 4 -8 -1 -6 -11 5 -10 11 -25 21 -33 23 -8 2 -26 15 -39
30 -13 15 -20 20 -16 12 4 -10 1 -9 -8 3 -8 9 -19 17 -26 17 -6 0 -10 5 -8 12
1 7 -4 12 -11 13 -7 0 -22 11 -33 25 -12 14 -18 18 -14 10 3 -8 -10 3 -30 25
-20 22 -34 33 -30 25 4 -8 -45 38 -109 102 -64 65 -116 122 -116 127 0 5 -17
23 -37 41 -21 17 -31 28 -23 25 8 -4 2 5 -15 20 -16 15 -29 31 -27 36 1 5 -5
12 -13 15 -8 3 -13 10 -10 15 3 4 -4 13 -15 19 -11 6 -18 15 -15 19 3 5 -2 12
-11 15 -8 3 -13 10 -10 15 3 5 -1 12 -10 15 -8 3 -12 10 -9 16 3 5 1 10 -4 10
-6 0 -11 6 -11 14 0 8 -7 17 -16 20 -8 3 -12 10 -9 16 3 5 2 10 -3 10 -5 0
-17 12 -27 26 -12 18 -13 24 -4 19 8 -3 6 0 -3 8 -10 8 -15 17 -11 20 3 4 1 7
-6 7 -7 0 -10 4 -7 9 3 5 0 11 -7 14 -6 3 -21 19 -31 37 -13 23 -15 31 -5 26
8 -4 6 -1 -3 7 -10 8 -15 17 -11 20 3 4 1 7 -6 7 -7 0 -9 5 -6 10 3 6 1 10 -5
10 -6 0 -8 5 -5 10 3 6 1 10 -5 10 -6 0 -8 5 -5 10 3 6 1 10 -6 10 -7 0 -10 3
-6 6 9 10 -14 64 -26 57 -6 -4 -7 -1 -2 6 4 8 -2 25 -14 42 -12 16 -19 35 -15
41 4 6 3 8 -3 5 -14 -9 -24 18 -16 40 4 11 3 14 -5 9 -11 -7 -16 7 -15 42 1 6
-3 12 -8 12 -5 0 -6 7 -3 15 4 8 1 15 -6 15 -6 0 -9 4 -5 9 3 5 1 12 -4 16 -6
3 -8 12 -4 20 3 8 0 15 -7 15 -6 0 -9 4 -5 9 3 5 1 12 -4 16 -6 3 -7 13 -4 22
5 12 3 14 -6 8 -10 -5 -11 -2 -7 13 4 11 2 23 -4 27 -6 3 -8 11 -5 16 4 5 1 9
-5 9 -6 0 -8 10 -4 26 5 20 4 25 -5 20 -8 -6 -10 0 -5 18 3 15 2 26 -4 26 -6
0 -8 8 -5 19 3 10 0 22 -6 25 -5 4 -8 13 -4 21 3 9 1 21 -5 28 -5 6 -8 21 -6
32 1 10 -2 25 -7 31 -5 7 -7 24 -3 40 5 20 4 25 -5 19 -10 -5 -11 5 -6 44 4
35 3 51 -5 51 -7 0 -9 18 -5 58 4 33 3 52 -3 44 -5 -7 -8 62 -8 167 1 98 5
174 9 168 4 -7 6 16 3 50 -2 37 0 65 6 69 6 4 7 26 3 56 -5 36 -4 49 4 44 7
-5 9 7 4 40 -5 35 -3 45 6 40 8 -6 11 2 8 28 -2 20 0 36 6 36 5 0 7 11 5 25
-3 14 -1 25 5 25 5 0 7 13 5 29 -2 17 0 27 5 24 5 -3 6 4 2 16 -4 13 -2 21 5
21 8 0 10 10 8 25 -3 14 -1 22 5 18 5 -3 6 3 2 16 -4 13 -2 21 5 21 7 0 10 8
7 20 -3 11 -1 20 5 20 6 0 8 9 5 20 -3 11 -1 20 5 20 6 0 8 9 5 20 -3 11 -1
23 5 26 5 3 7 13 4 21 -4 8 -2 11 5 7 8 -4 9 1 4 16 -5 15 -4 20 4 16 7 -5 11
2 11 19 0 17 -4 24 -12 19 -8 -5 -9 2 -5 25 5 23 3 30 -5 25 -7 -5 -9 1 -4 20
4 16 2 26 -4 26 -7 0 -9 8 -5 19 3 11 2 22 -4 25 -5 3 -7 16 -3 28 3 13 1 19
-5 15 -6 -4 -8 3 -5 18 2 14 0 25 -7 25 -5 0 -8 7 -5 15 4 8 1 15 -6 15 -7 0
-9 8 -5 21 5 16 4 19 -6 14 -9 -6 -11 -2 -7 13 4 12 2 22 -4 22 -5 0 -6 5 -3
10 3 6 3 16 -2 23 -4 6 -9 21 -10 31 -2 11 -8 25 -13 31 -5 7 -7 15 -3 18 3 4
1 7 -6 7 -7 0 -10 4 -7 9 8 12 -60 172 -76 182 -16 10 -25 4 -44 -33 -12 -23
-12 -28 -2 -23 7 3 6 1 -3 -7 -9 -7 -14 -19 -11 -27 3 -8 0 -11 -6 -7 -12 7
-25 -22 -15 -36 3 -7 1 -8 -5 -4 -11 6 -17 -12 -13 -36 0 -5 -4 -8 -10 -8 -5
0 -7 -4 -4 -10 3 -5 1 -10 -5 -10 -6 0 -8 -4 -5 -10 3 -5 1 -10 -5 -10 -6 0
-8 -4 -5 -10 3 -5 1 -10 -5 -10 -6 0 -9 -4 -5 -9 3 -5 0 -13 -6 -16 -5 -4 -8
-14 -5 -22 4 -9 2 -11 -6 -7 -8 5 -9 2 -5 -9 3 -10 2 -17 -4 -17 -6 0 -7 -4
-4 -10 3 -5 1 -10 -5 -10 -7 0 -9 -7 -6 -16 4 -9 2 -13 -5 -8 -8 4 -9 -1 -4
-16 5 -15 4 -20 -4 -16 -7 5 -9 1 -5 -8 3 -9 1 -16 -6 -16 -6 0 -9 -4 -6 -9 4
-5 0 -12 -6 -14 -10 -4 -10 -6 -1 -6 7 -1 10 -8 7 -16 -4 -8 -10 -12 -15 -9
-6 3 -7 -6 -4 -23 5 -23 4 -25 -5 -13 -10 12 -11 11 -7 -7 3 -13 1 -23 -5 -23
-5 0 -6 -10 -3 -21 5 -16 4 -19 -6 -14 -9 6 -11 3 -6 -8 4 -10 2 -17 -4 -17
-6 0 -9 -9 -6 -20 3 -11 1 -20 -4 -20 -5 0 -9 -5 -9 -11 0 -5 4 -7 10 -4 6 3
7 -1 4 -9 -3 -9 -11 -16 -16 -16 -5 0 -7 -14 -3 -32 5 -26 4 -30 -5 -18 -10
12 -11 11 -7 -7 3 -13 1 -23 -5 -23 -6 0 -7 -13 -3 -31 6 -24 4 -30 -5 -24
-10 6 -12 0 -7 -24 5 -23 3 -30 -5 -25 -7 5 -9 -1 -4 -20 4 -15 2 -26 -4 -26
-6 0 -8 -15 -5 -37 5 -30 3 -35 -5 -23 -9 12 -11 9 -7 -13 2 -15 0 -30 -4 -33
-5 -3 -7 -24 -4 -47 4 -33 3 -38 -5 -22 -9 17 -9 16 -5 -9 9 -43 -6 -176 -16
-151 -5 12 -7 -16 -4 -65 2 -47 1 -75 -3 -62 -4 13 -7 -87 -7 -221 0 -140 4
-243 9 -240 5 4 6 -22 3 -58 -4 -35 -3 -58 1 -51 11 17 36 -170 28 -203 -5
-19 -3 -25 5 -19 9 5 10 -3 5 -32 -4 -26 -4 -34 3 -25 12 18 27 -71 15 -90 -5
-8 -3 -10 6 -4 10 6 12 1 8 -19 -3 -14 -1 -26 5 -26 5 0 7 -9 4 -20 -3 -11 -1
-18 3 -15 11 7 24 -60 15 -74 -3 -6 -1 -11 5 -11 7 0 10 -7 6 -15 -3 -8 -1
-15 5 -15 6 0 9 -7 5 -15 -3 -8 -1 -15 4 -15 5 0 7 -6 4 -14 -3 -8 0 -17 5
-21 6 -3 9 -11 6 -16 -4 -5 -2 -9 4 -9 6 0 8 -7 5 -15 -4 -8 -1 -15 6 -15 7 0
10 -8 7 -20 -3 -11 -1 -18 3 -15 12 7 23 -32 14 -46 -5 -8 -3 -9 6 -4 9 6 10
2 5 -15 -5 -17 -4 -21 5 -15 8 5 11 4 7 -2 -8 -12 14 -73 26 -73 4 0 5 -4 2
-10 -3 -5 -1 -10 5 -10 6 0 8 -4 5 -10 -3 -5 -1 -10 5 -10 6 0 8 -4 5 -10 -3
-5 -1 -10 5 -10 6 0 9 -4 6 -9 -9 -14 5 -42 16 -35 6 4 9 1 6 -7 -3 -8 2 -20
11 -27 9 -8 10 -11 4 -7 -9 4 -11 1 -7 -9 3 -9 10 -14 14 -11 8 5 26 -33 22
-47 -1 -5 3 -8 9 -8 5 0 7 -4 4 -10 -3 -5 -1 -10 5 -10 6 0 8 -4 5 -10 -3 -5
-1 -10 5 -10 6 0 8 -5 5 -10 -3 -6 1 -13 9 -16 9 -3 13 -10 11 -15 -3 -4 3
-17 14 -28 11 -11 17 -22 13 -25 -3 -3 0 -6 7 -6 7 0 9 -4 6 -10 -3 -5 1 -10
9 -10 10 0 13 -6 10 -15 -4 -8 1 -17 10 -21 9 -3 13 -10 10 -15 -3 -5 0 -9 7
-9 7 0 10 -3 7 -6 -3 -3 5 -16 19 -30 13 -13 21 -29 18 -34 -3 -6 -1 -10 4
-10 6 0 11 -7 11 -15 0 -7 8 -19 18 -24 9 -6 13 -11 7 -11 -5 0 1 -10 15 -21
14 -11 18 -18 10 -14 -8 4 -4 -2 10 -14 14 -11 25 -24 25 -29 0 -5 14 -21 30
-36 17 -15 23 -24 15 -21 -8 4 -3 -4 13 -17 15 -14 27 -29 27 -33 0 -4 21 -29
48 -55 26 -26 76 -78 112 -116 36 -38 68 -67 73 -66 4 1 11 -8 16 -20 8 -22
47 -63 59 -63 4 0 22 -17 40 -37 19 -21 38 -35 43 -33 10 7 49 -30 49 -46 0
-5 4 -8 8 -5 5 3 15 -4 22 -15 8 -10 20 -19 26 -19 7 0 14 -7 18 -15 3 -8 11
-15 17 -15 7 0 18 -8 26 -17 9 -12 12 -13 8 -3 -4 8 3 4 14 -10 11 -14 21 -20
21 -15 0 6 5 2 11 -8 6 -9 14 -15 20 -12 5 4 12 -1 15 -10 4 -9 13 -14 20 -11
8 3 13 2 11 -2 -1 -4 3 -9 8 -11 6 -2 16 -11 23 -20 11 -13 12 -13 7 -1 -5 12
-4 12 7 -1 7 -9 19 -14 26 -12 6 3 12 -3 12 -12 0 -9 5 -13 10 -10 6 3 13 -1
16 -9 3 -9 10 -13 15 -10 5 3 9 0 9 -6 0 -6 4 -9 9 -6 5 3 12 -1 15 -10 3 -8
10 -12 16 -9 5 3 10 2 10 -4 0 -6 7 -8 15 -5 8 4 15 1 15 -5 0 -6 7 -11 15
-11 8 0 24 -10 36 -22 12 -13 19 -17 15 -11 -5 9 -2 11 8 7 9 -3 14 -9 11 -14
-2 -4 7 -12 21 -19 14 -6 23 -7 19 -1 -3 6 1 7 9 4 9 -3 13 -11 9 -17 -3 -5
-1 -7 5 -4 14 9 43 -3 36 -14 -3 -5 2 -6 10 -3 9 3 16 1 16 -6 0 -6 5 -8 10
-5 6 3 10 2 10 -4 0 -13 34 -24 93 -30 5 -1 5 -6 1 -12 -4 -8 1 -9 16 -4 17 5
21 4 15 -6 -6 -9 -3 -11 8 -6 10 3 17 3 17 -2 0 -4 12 -6 28 -4 21 4 24 2 12
-6 -13 -9 -13 -11 3 -12 26 -2 31 -4 45 -12 6 -5 17 -5 22 -2 6 3 10 1 10 -5
0 -6 4 -9 9 -5 5 3 12 1 16 -4 3 -6 12 -8 20 -4 8 3 15 0 15 -7 0 -7 8 -9 21
-5 16 5 19 4 14 -6 -6 -9 -3 -11 8 -6 10 3 17 2 17 -3 0 -5 7 -7 15 -4 8 4 15
1 15 -6 0 -7 8 -9 20 -5 11 4 20 2 20 -4 0 -6 6 -8 14 -5 8 3 17 0 21 -5 3 -6
10 -9 15 -6 5 3 11 1 15 -5 3 -5 20 -7 37 -3 19 4 29 2 25 -4 -4 -5 7 -8 26
-5 25 3 29 1 17 -7 -11 -8 -6 -10 20 -5 27 4 31 3 20 -5 -11 -8 -7 -9 19 -4
25 4 32 3 27 -5 -4 -7 -3 -12 3 -12 5 0 12 6 14 13 4 8 6 8 6 0 1 -6 10 -9 23
-5 15 3 19 2 14 -7 -6 -8 -1 -10 18 -5 15 3 32 1 40 -5 7 -6 21 -9 30 -5 9 3
23 1 31 -6 8 -7 26 -10 39 -6 14 3 27 2 30 -3 3 -5 34 -7 69 -5 41 3 55 1 42
-5 -13 -5 14 -7 75 -5 63 2 85 0 65 -5 l-30 -9 38 -1 c28 -1 36 2 31 12 -5 8
-2 8 9 -2 12 -9 17 -10 17 -2 0 7 5 9 13 4 15 -9 127 -11 127 -1 0 8 21 5 37
-5 6 -4 13 -3 15 2 1 5 46 11 100 13 53 1 91 0 85 -4 -7 -5 -3 -8 11 -8 15 0
21 4 16 12 -5 8 7 10 45 5 28 -3 49 -2 46 2 -2 5 13 7 36 5 22 -2 38 0 35 4
-3 5 12 7 34 5 21 -2 41 1 45 7 3 5 18 7 32 4 15 -4 24 -3 20 3 -3 5 7 8 24 7
16 -1 32 2 35 7 3 5 17 6 31 3 20 -5 24 -4 18 6 -6 10 -2 11 19 6 20 -5 26 -4
20 5 -5 9 0 10 20 5 16 -4 26 -2 26 5 0 6 7 8 16 5 9 -4 23 -1 31 5 7 7 16 9
20 6 3 -4 12 -2 20 4 7 6 13 8 13 4 0 -4 7 -2 15 5 8 6 19 9 25 5 5 -3 10 -1
10 5 0 7 7 10 15 6 8 -3 15 -1 15 5 0 6 7 9 15 5 8 -3 15 -1 15 5 0 6 7 8 16
5 10 -4 13 -2 8 6 -5 7 0 9 14 6 12 -4 22 -2 22 4 0 5 6 8 13 5 6 -2 17 3 24
12 10 13 12 13 13 2 0 -11 5 -9 22 5 12 10 18 13 14 7 -5 -9 -2 -11 8 -7 9 3
13 11 9 17 -4 6 2 8 15 5 15 -4 25 0 32 10 8 14 10 14 10 2 1 -13 2 -13 13 0
12 15 30 22 55 23 6 0 12 4 12 8 0 5 7 5 17 2 12 -5 14 -3 8 7 -6 10 -4 12 8
7 12 -4 17 -1 18 11 0 11 2 13 6 4 4 -10 9 -9 20 5 8 10 12 12 8 6 -4 -9 -1
-11 9 -7 9 3 14 10 11 14 -5 9 33 26 48 22 13 -4 67 28 67 39 0 6 5 7 10 4 6
-3 10 -1 10 5 0 6 5 8 10 5 6 -3 10 -1 10 5 0 6 4 9 9 5 5 -3 16 2 24 10 9 8
21 15 27 15 6 0 8 5 4 12 -5 8 -2 9 10 5 9 -4 14 -3 11 2 -3 5 4 12 15 16 11
3 20 12 20 18 0 7 4 6 10 -3 6 -10 10 -11 10 -2 0 6 7 12 15 12 7 0 18 6 22
13 4 7 20 18 36 24 15 7 27 17 27 23 0 5 6 10 14 10 8 0 29 15 47 33 18 17 29
26 24 18 -5 -10 -4 -12 3 -7 7 4 12 14 12 21 0 9 6 12 16 8 10 -4 17 2 21 16
3 14 11 20 20 17 8 -3 11 -1 8 4 -3 6 -1 10 6 10 6 0 18 8 26 18 8 9 11 11 7
3 -5 -9 -3 -12 4 -7 7 4 12 14 12 23 0 9 3 14 6 10 4 -3 15 4 26 16 11 12 17
15 13 7 -4 -8 8 1 27 21 18 19 37 37 43 40 5 2 9 7 8 11 -2 5 2 7 9 5 6 -1 17
9 25 23 7 14 13 21 13 17 0 -5 14 7 32 27 17 19 34 34 37 32 3 -2 20 10 36 27
17 17 21 24 9 16 -11 -8 -7 -2 8 12 15 14 28 31 28 38 0 7 5 9 10 6 6 -3 10 1
10 9 0 9 6 15 13 13 6 -1 11 4 10 10 -2 7 3 12 10 10 6 -1 11 4 10 10 -2 7 3
12 10 10 7 -1 11 6 9 17 -2 10 0 16 5 13 4 -2 17 5 28 16 12 12 14 17 5 13 -8
-4 3 8 25 28 22 19 41 40 41 46 1 5 2 15 3 21 0 5 5 8 10 5 11 -7 43 28 34 37
-3 4 -1 7 6 7 7 0 9 5 5 13 -4 6 -4 9 1 5 12 -11 35 11 35 32 0 10 12 28 28
40 15 12 20 19 12 15 -8 -4 -3 3 13 15 15 12 25 26 21 31 -3 5 0 9 6 9 6 0 8
5 5 10 -3 6 -2 10 4 10 5 0 23 23 41 51 17 28 26 48 20 44 -5 -3 -10 -1 -10 4
0 6 8 11 17 11 9 0 13 3 10 7 -4 3 1 12 11 20 11 10 12 12 2 8 -10 -4 -9 -2 2
8 10 8 15 17 11 20 -3 4 -1 7 6 7 7 0 9 5 6 10 -3 6 -2 10 4 10 6 0 8 7 5 15
-4 8 1 17 10 21 9 3 13 10 10 15 -3 5 0 9 6 9 6 0 8 5 5 10 -3 6 -1 10 5 10 6
0 8 5 5 10 -3 6 -1 10 5 10 6 0 8 5 5 10 -3 6 -1 10 5 10 6 0 8 5 5 10 -3 6
-2 10 4 10 5 0 12 14 16 30 4 17 11 28 16 24 5 -3 9 -2 10 3 0 4 2 21 3 37 1
15 10 34 21 42 10 8 15 14 11 14 -5 0 -3 6 3 13 6 8 8 17 4 20 -3 4 -1 7 5 7
6 0 9 7 6 15 -4 8 -1 15 5 15 6 0 8 7 4 17 -5 12 -3 14 7 8 10 -6 12 -4 7 8
-3 10 -2 17 3 17 5 0 7 7 4 15 -4 8 -1 15 6 15 7 0 10 7 6 16 -4 10 -2 13 6 8
7 -5 9 0 6 14 -4 12 -3 20 1 17 10 -6 54 123 46 135 -3 6 -1 10 5 10 7 0 9 8
5 21 -5 16 -4 19 6 14 9 -6 11 -3 6 8 -3 10 -2 17 3 17 6 0 10 5 10 11 0 5 -4
7 -10 4 -6 -3 -7 1 -4 9 3 9 10 16 15 16 5 0 8 3 7 8 -1 4 4 27 11 51 7 23 10
50 7 58 -4 9 -2 11 6 7 7 -5 9 1 4 20 -3 14 -2 26 3 26 6 0 8 9 6 20 -2 11 0
22 6 25 5 4 7 17 5 31 -3 15 -1 22 5 18 7 -4 9 5 6 25 -3 17 -1 31 4 31 6 0 8
18 5 40 -3 27 -1 38 6 34 8 -5 9 3 5 24 -4 17 -2 34 4 37 5 4 7 22 4 42 -3 20
-1 32 4 28 6 -3 8 8 4 29 -3 18 -1 36 5 40 5 3 8 35 6 73 -3 50 -1 61 6 43 6
-18 7 -4 4 45 -4 50 -2 66 5 55 7 -9 11 -10 11 -3 0 6 -4 15 -10 18 -5 3 -10
12 -10 18 0 7 4 6 10 -3 7 -10 10 21 10 98 0 82 -3 111 -11 106 -9 -5 -10 14
-5 74 5 54 4 82 -4 87 -6 4 -8 23 -4 50 3 25 2 50 -2 57 -5 7 -7 25 -5 40 1
16 -2 28 -8 28 -6 0 -7 15 -4 37 4 23 2 34 -4 30 -6 -4 -8 9 -6 33 3 26 0 40
-8 40 -7 0 -9 10 -5 30 3 19 1 30 -5 30 -7 0 -9 11 -6 30 4 16 2 32 -3 35 -5
3 -7 12 -3 20 3 8 0 15 -7 15 -8 0 -11 9 -8 25 3 14 1 25 -4 25 -5 0 -6 9 -3
20 4 12 1 27 -5 35 -7 8 -9 15 -5 15 4 0 2 7 -5 15 -6 8 -9 18 -6 23 3 5 -1
19 -8 33 -7 13 -11 30 -9 36 2 6 0 14 -6 17 -6 4 -7 14 -4 23 4 11 3 14 -5 9
-8 -5 -10 -2 -6 8 3 9 1 16 -5 16 -6 0 -8 7 -5 15 4 8 2 15 -2 15 -5 0 -10 12
-11 27 0 15 -6 29 -12 31 -6 2 -9 8 -6 13 3 5 0 19 -7 31 -7 13 -12 25 -13 28
-1 18 -29 90 -35 90 -4 0 -7 7 -7 15 0 19 -55 139 -66 143 -4 2 -5 8 -1 13 3
5 0 9 -6 9 -6 0 -9 4 -5 9 3 5 -2 17 -11 25 -8 9 -12 16 -7 16 4 0 4 4 -2 8
-5 4 -18 25 -28 47 -29 63 -98 175 -109 175 -5 0 -6 5 -3 10 3 6 -1 13 -9 16
-9 3 -13 10 -11 15 3 4 -3 17 -13 27 -10 10 -21 26 -25 35 -3 9 -11 17 -17 17
-6 0 -9 4 -5 9 3 5 -5 17 -17 25 -12 9 -18 16 -13 16 6 1 0 9 -12 19 -12 10
-20 21 -17 24 3 3 -3 12 -15 19 -12 7 -21 18 -21 24 0 6 -11 19 -24 30 -14 10
-23 21 -21 24 2 3 -9 17 -26 30 -16 14 -29 29 -29 33 0 14 -173 197 -210 223
-19 13 -32 24 -28 24 6 0 -26 30 -131 125 -19 16 -31 23 -27 15 4 -8 -2 -3
-14 13 -12 15 -25 27 -30 27 -4 0 -22 14 -40 30 -18 17 -35 29 -37 27 -2 -3
-18 9 -34 24 -17 16 -35 26 -40 23 -5 -3 -9 -1 -9 4 0 5 -18 21 -40 36 -22 14
-40 23 -40 19 0 -4 -7 2 -16 13 -8 10 -12 12 -8 4 4 -8 -3 -5 -15 8 -12 12
-26 20 -31 17 -4 -3 -11 2 -14 11 -3 8 -10 12 -16 9 -5 -3 -10 -3 -10 2 0 4
-23 21 -50 36 -28 16 -50 25 -50 22 0 -4 -7 1 -16 9 -8 9 -20 14 -25 11 -5 -4
-9 -2 -9 4 0 8 -40 27 -48 22 -1 -1 -10 6 -19 14 -9 9 -24 14 -35 12 -11 -3
-16 -1 -11 6 4 7 0 8 -11 4 -10 -4 -15 -3 -11 3 6 10 -7 14 -34 11 -8 -2 -10
2 -5 10 5 9 2 10 -9 6 -10 -3 -17 -3 -17 2 0 9 -86 44 -110 44 -8 0 -21 7 -29
14 -7 8 -20 12 -27 9 -8 -3 -14 -2 -14 3 0 8 -70 33 -102 36 -10 1 -20 4 -24
7 -3 4 -12 4 -20 1 -8 -3 -14 0 -14 7 0 7 -8 10 -20 7 -11 -3 -17 -1 -14 4 3
6 -5 7 -22 3 -19 -5 -25 -4 -20 5 4 6 2 11 -3 11 -6 0 -11 -4 -11 -10 0 -5 -7
-7 -15 -4 -8 4 -12 10 -9 15 3 5 -2 9 -11 9 -9 0 -14 -4 -11 -9 4 -5 -3 -7
-14 -4 -11 3 -17 10 -13 16 4 6 -2 8 -15 5 -12 -4 -22 -2 -22 4 0 6 -9 8 -20
5 -11 -3 -23 -1 -26 4 -8 14 -26 11 -18 -3 5 -10 4 -10 -6 -1 -7 6 -19 9 -28
6 -11 -5 -13 -3 -7 7 6 10 0 11 -30 6 -27 -5 -35 -4 -30 4 6 9 -4 10 -35 5
-30 -5 -41 -4 -36 4 5 8 -10 9 -52 5 -36 -4 -62 -3 -65 3 -4 6 -26 9 -49 7
-34 -3 -38 -1 -18 5 15 5 -17 7 -85 5 -71 -2 -99 0 -80 5 23 7 11 9 -52 10
-52 1 -84 -3 -89 -10z m103 -5 c-3 -3 -12 -4 -19 -1 -8 3 -5 6 6 6 11 1 17 -2
13 -5z m-5710 -2020 c-3 -3 -12 -4 -19 -1 -8 3 -5 6 6 6 11 1 17 -2 13 -5z
m56 -1 c-7 -2 -21 -2 -30 0 -10 3 -4 5 12 5 17 0 24 -2 18 -5z m8167 -428 c5
3 7 -6 4 -21 -3 -18 -1 -23 7 -18 8 5 10 -2 7 -25 -2 -17 0 -31 5 -31 5 0 7
-13 4 -30 -4 -19 -2 -30 5 -30 7 0 8 -12 4 -32 -4 -21 -3 -28 3 -19 11 17 19
-42 16 -116 -1 -29 1 -53 5 -53 3 0 5 -31 2 -70 -2 -40 1 -70 6 -70 11 0 10
-130 -1 -148 -5 -7 -6 -34 -2 -61 3 -27 2 -52 -3 -55 -5 -3 -7 -29 -4 -57 3
-37 1 -54 -9 -60 -8 -5 -9 -9 -3 -9 7 0 8 -15 3 -47 -4 -27 -8 -54 -8 -61 -1
-7 -5 -10 -11 -7 -6 4 -8 -7 -4 -27 4 -26 3 -30 -6 -18 -9 12 -10 8 -5 -19 5
-20 3 -31 -2 -28 -6 4 -8 -4 -5 -20 3 -16 1 -24 -5 -20 -6 4 -8 -4 -5 -20 3
-18 1 -24 -6 -19 -8 5 -10 2 -6 -8 4 -9 1 -16 -6 -16 -7 0 -10 -8 -7 -20 3
-11 1 -20 -3 -20 -4 0 -6 -10 -2 -22 4 -15 2 -19 -7 -13 -10 6 -11 2 -6 -15 4
-14 3 -20 -3 -16 -5 3 -10 0 -9 -7 1 -36 -4 -57 -13 -52 -6 3 -7 -1 -4 -9 4
-9 1 -16 -6 -16 -7 0 -10 -7 -6 -16 3 -8 2 -13 -3 -10 -5 3 -12 -1 -15 -10 -3
-8 -2 -12 4 -9 6 3 7 -1 4 -9 -3 -9 -10 -16 -16 -16 -5 0 -6 -4 -3 -10 3 -5 1
-10 -5 -10 -6 0 -8 -4 -5 -10 3 -5 1 -10 -5 -10 -6 0 -8 -4 -5 -10 3 -5 1 -10
-5 -10 -6 0 -8 -4 -5 -10 3 -5 2 -10 -3 -10 -6 0 -8 -9 -5 -20 4 -14 0 -20
-11 -20 -10 0 -14 -4 -11 -10 3 -5 1 -10 -5 -10 -6 0 -8 -4 -5 -10 3 -5 1 -10
-5 -10 -6 0 -8 -4 -5 -10 3 -5 1 -10 -5 -10 -6 0 -8 -4 -5 -10 3 -5 1 -10 -5
-10 -6 0 -9 -4 -6 -9 3 -5 -1 -12 -10 -15 -9 -4 -14 -13 -10 -22 3 -8 2 -12
-3 -9 -11 6 -21 -7 -26 -37 -3 -13 -15 -31 -27 -41 -13 -10 -16 -16 -8 -12 8
4 4 -3 -10 -15 -14 -12 -18 -19 -10 -15 8 4 6 -2 -5 -12 -11 -10 -21 -25 -23
-33 -5 -21 -60 -90 -106 -134 -22 -21 -35 -35 -28 -31 11 6 11 3 1 -13 -7 -12
-17 -18 -21 -16 -4 3 -8 -1 -8 -8 -1 -16 -56 -78 -70 -78 -5 0 -10 -5 -10 -11
0 -16 -92 -99 -103 -92 -6 3 -7 2 -4 -4 6 -9 -22 -40 -67 -74 -18 -12 -19 -12
-12 1 4 8 -9 -3 -29 -25 -20 -22 -34 -33 -30 -25 4 8 -4 3 -17 -12 -13 -16
-29 -28 -36 -28 -6 0 -16 -9 -22 -20 -6 -11 -15 -18 -21 -15 -5 4 -12 -1 -15
-9 -3 -9 -10 -13 -15 -10 -5 3 -9 0 -9 -5 0 -6 -7 -11 -15 -11 -8 0 -15 -4
-15 -9 0 -5 -11 -12 -25 -15 -14 -4 -23 -11 -20 -16 3 -6 -3 -10 -13 -10 -11
0 -23 -7 -26 -16 -3 -9 -12 -14 -19 -11 -6 2 -18 -3 -25 -12 -11 -13 -12 -13
-7 -1 4 10 2 9 -8 -2 -8 -10 -17 -15 -20 -11 -4 3 -7 1 -7 -5 0 -7 -3 -11 -7
-11 -19 3 -34 -2 -29 -9 6 -11 -62 -44 -74 -37 -5 3 -13 -3 -19 -12 -5 -10
-13 -15 -17 -11 -4 4 -13 0 -21 -10 -8 -9 -12 -11 -8 -5 4 9 1 11 -9 7 -9 -3
-13 -11 -9 -17 4 -6 0 -8 -10 -4 -10 3 -17 2 -17 -4 0 -6 -4 -7 -10 -4 -5 3
-10 1 -10 -6 0 -7 -3 -9 -7 -6 -3 4 -15 -1 -26 -10 -11 -10 -17 -12 -13 -6 5
9 2 11 -8 7 -9 -3 -16 -10 -16 -15 0 -4 -7 -5 -17 -2 -11 4 -14 3 -9 -5 5 -8
2 -10 -8 -6 -9 3 -16 1 -16 -5 0 -6 -7 -8 -15 -5 -8 4 -15 1 -15 -5 0 -6 -7
-8 -17 -4 -12 5 -14 3 -8 -7 6 -10 4 -12 -8 -7 -10 3 -17 2 -17 -4 0 -6 -9 -8
-21 -4 -16 5 -19 4 -14 -6 6 -9 2 -11 -13 -7 -12 4 -22 2 -22 -4 0 -6 -9 -8
-20 -5 -12 3 -18 1 -14 -5 5 -7 -2 -9 -20 -4 -20 5 -26 4 -20 -5 5 -9 -1 -10
-20 -5 -20 5 -26 4 -20 -5 5 -9 0 -10 -20 -5 -14 3 -26 2 -26 -3 0 -5 -9 -11
-20 -14 -11 -3 -18 -1 -14 4 3 5 0 9 -5 9 -6 0 -11 -5 -11 -11 0 -7 -10 -9
-27 -5 -22 5 -25 4 -13 -4 11 -9 4 -10 -32 -7 -31 3 -45 1 -41 -6 4 -6 -11 -8
-43 -4 -30 4 -41 3 -29 -2 31 -13 -101 -19 -365 -17 -228 2 -377 17 -364 37 3
5 -9 6 -27 2 -21 -4 -30 -2 -26 4 4 6 -4 8 -20 5 -19 -4 -24 -2 -18 8 5 9 2
10 -14 5 -11 -3 -21 -2 -21 3 0 6 -9 8 -20 5 -11 -3 -20 -1 -20 5 0 6 -10 8
-22 4 -15 -4 -19 -2 -13 7 6 10 2 11 -15 6 -14 -5 -20 -3 -16 3 4 6 -2 8 -16
4 -14 -3 -19 -1 -14 6 5 8 2 10 -8 6 -9 -3 -16 -1 -16 6 0 6 -5 8 -10 5 -14
-9 -52 4 -45 16 3 5 -2 6 -11 2 -13 -5 -15 -3 -9 7 6 10 4 12 -8 7 -9 -3 -18
1 -21 10 -4 8 -13 13 -21 9 -8 -3 -15 0 -15 6 0 6 -3 8 -7 5 -3 -4 -12 1 -20
11 -8 9 -11 11 -8 4 6 -11 3 -11 -14 0 -12 7 -21 16 -21 20 0 4 -7 4 -17 1
-10 -4 -14 -2 -10 4 4 6 0 14 -9 17 -8 3 -12 2 -9 -4 3 -6 -1 -7 -9 -4 -9 3
-13 10 -10 15 3 5 -6 9 -20 9 -17 0 -26 6 -26 16 0 8 -4 12 -10 9 -5 -3 -10
-2 -10 4 0 6 -10 15 -21 22 -17 9 -20 8 -14 -3 4 -8 2 -8 -7 2 -7 8 -19 16
-27 18 -20 4 -61 38 -55 45 6 5 -34 31 -48 32 -4 0 -14 9 -22 20 -9 11 -16 16
-16 11 0 -4 -9 2 -21 15 -11 13 -18 17 -14 9 4 -8 -6 0 -22 18 -15 18 -32 32
-38 32 -5 0 -21 14 -34 30 -13 16 -27 27 -32 24 -5 -3 -8 0 -7 8 2 7 -3 12 -9
11 -7 -2 -13 3 -13 11 0 7 -13 23 -30 36 -16 12 -27 27 -24 31 3 5 -2 12 -10
15 -9 3 -16 13 -16 20 0 8 -7 17 -15 20 -8 4 -15 13 -15 21 0 8 -4 11 -10 8
-5 -3 -10 -1 -10 4 0 22 -2 26 -16 34 -8 5 -12 12 -9 18 4 5 -1 12 -9 15 -9 3
-13 10 -10 15 3 5 1 9 -3 9 -5 0 -10 12 -11 26 l-2 26 34 -21 c18 -11 37 -17
41 -13 5 4 5 2 1 -5 -4 -8 2 -15 19 -19 14 -3 25 -10 25 -15 0 -5 9 -9 21 -9
11 0 17 -4 14 -10 -6 -9 8 -14 28 -11 4 0 7 -4 7 -10 0 -5 5 -7 10 -4 6 3 13
-1 16 -9 3 -9 10 -13 15 -10 5 3 9 0 9 -7 0 -7 3 -10 6 -6 4 3 13 -1 21 -9 8
-8 19 -12 24 -9 5 4 9 1 9 -5 0 -6 5 -8 10 -5 6 3 10 2 10 -4 0 -6 7 -7 17 -4
12 5 14 3 8 -7 -5 -9 -4 -11 4 -6 16 10 53 -3 45 -16 -5 -7 -1 -9 9 -5 10 3
17 2 17 -4 0 -6 5 -7 10 -4 6 3 10 1 10 -4 0 -6 3 -10 8 -10 24 4 52 -2 47
-11 -3 -6 1 -7 9 -4 9 3 16 1 16 -5 0 -6 7 -8 15 -5 8 4 15 1 15 -6 0 -6 4 -9
9 -5 5 3 13 0 16 -6 4 -5 13 -8 21 -5 8 3 14 1 14 -4 0 -5 7 -7 15 -4 8 4 15
1 15 -6 0 -7 8 -9 20 -5 11 4 20 2 20 -4 0 -6 7 -8 15 -5 8 4 15 2 15 -4 0 -6
9 -8 20 -5 11 3 20 0 20 -6 0 -7 9 -9 26 -5 15 4 25 3 22 -2 -3 -5 17 -9 45
-10 31 -1 53 -6 55 -14 3 -9 6 -9 13 1 7 11 9 11 9 1 0 -7 5 -10 10 -7 6 4 19
3 28 -1 9 -4 44 -6 77 -5 33 1 55 -2 48 -6 -6 -4 74 -8 177 -8 103 0 186 4
183 9 -3 4 15 7 40 5 25 -2 43 0 40 5 -4 5 13 7 37 3 31 -4 40 -3 29 4 -10 8
-4 9 23 7 20 -2 35 -1 32 3 -6 10 73 22 87 13 8 -5 9 -3 4 6 -6 10 -1 12 19 8
14 -3 26 -1 26 4 0 6 7 8 15 4 8 -3 15 -1 15 5 0 6 7 9 15 5 8 -3 15 -1 15 5
0 6 7 8 16 5 9 -4 13 -2 8 5 -4 8 1 9 16 4 16 -5 20 -4 15 5 -5 9 -1 10 15 5
15 -5 20 -4 16 4 -5 7 -1 9 8 5 9 -4 16 -1 16 6 0 7 7 10 16 6 8 -3 12 -2 9 4
-5 9 23 15 48 11 4 0 7 3 7 9 0 6 3 9 8 9 20 -3 32 2 26 12 -4 7 -1 10 7 7 17
-6 69 19 69 33 0 6 5 7 10 4 6 -3 10 -1 10 5 0 6 4 9 9 5 5 -3 16 1 24 9 8 8
17 12 21 9 3 -4 6 -1 6 5 0 7 7 12 15 12 8 0 15 5 15 10 0 6 6 10 14 10 7 0
26 12 42 27 16 15 32 28 35 28 4 0 17 11 29 25 12 14 18 19 14 11 -5 -9 -3
-12 4 -7 7 4 12 14 12 22 0 8 7 14 15 14 8 0 15 5 15 10 0 6 7 10 15 10 8 0
14 6 13 13 -2 6 3 11 10 9 8 -1 16 6 19 17 3 11 11 22 19 25 8 3 14 11 14 18
0 7 10 18 23 23 12 6 21 16 19 23 -1 7 4 11 10 10 7 -2 12 3 10 10 -1 6 3 12
9 12 5 0 7 5 4 10 -3 6 0 10 8 10 8 0 21 8 28 18 13 16 12 16 -6 3 -11 -7 -3
2 18 20 20 19 37 40 37 47 0 6 5 12 11 12 5 0 7 5 4 10 -3 6 -2 10 3 10 12 0
45 50 45 67 0 7 7 15 15 18 8 3 11 12 8 21 -3 8 -2 13 2 10 5 -3 17 9 27 26
13 22 14 29 4 24 -8 -4 -6 -1 3 7 10 8 15 17 11 20 -3 4 -1 7 6 7 7 0 9 5 6
10 -3 6 -1 10 5 10 6 0 8 5 5 10 -3 6 -2 10 4 10 6 0 8 7 5 15 -4 8 1 17 10
21 9 3 14 10 11 14 -7 12 16 71 26 64 5 -3 6 2 3 10 -4 9 -1 16 6 16 7 0 10 7
6 15 -3 8 -1 15 4 15 5 0 7 6 4 14 -3 7 1 20 8 27 7 8 13 20 14 27 3 39 5 43
16 36 7 -4 8 -3 4 5 -10 15 3 53 15 46 5 -4 9 -4 9 -1 0 2 3 12 7 22 4 12 3
15 -5 10 -8 -5 -10 -2 -6 8 3 9 11 13 17 9 6 -4 8 0 4 10 -3 9 0 23 8 31 8 7
11 16 8 20 -4 3 -1 6 6 6 7 0 9 5 6 10 -3 6 -1 10 5 10 6 0 8 5 5 10 -3 6 -1
10 5 10 6 0 8 5 5 10 -3 6 -1 10 6 10 7 0 10 3 7 6 -4 3 2 14 13 25 11 11 17
25 13 31 -4 7 -3 8 4 4 8 -5 12 0 12 13 0 11 8 26 19 33 18 13 21 18 21 38 0
5 6 9 13 7 6 -1 11 4 10 10 -2 7 0 12 5 10 4 -1 8 1 9 6 3 11 45 50 69 64 10
6 18 16 16 23 -1 6 2 9 8 5 5 -3 10 -1 10 4 0 6 7 11 15 11 9 0 18 7 21 15 4
8 13 15 20 15 8 0 17 7 20 15 3 8 21 23 40 35 22 12 32 25 28 32 -4 7 -3 8 4
4 7 -4 12 -2 12 3 0 6 5 10 12 9 6 -2 17 7 23 19 7 13 15 20 18 16 4 -3 7 -1
7 5 0 7 6 12 14 12 7 0 27 16 43 35 17 19 33 35 37 35 12 0 106 99 106 111 0
7 3 10 6 6 6 -6 54 37 54 48 0 10 28 36 37 35 4 -1 13 6 18 16 6 10 19 26 30
37 11 10 13 15 5 11 -8 -3 -1 6 16 22 40 38 75 82 54 69 -9 -6 -4 0 10 12 14
13 22 23 18 23 -3 0 8 16 25 36 24 27 33 32 35 20 2 -9 7 -14 12 -11z m547
-497 c-3 -8 -6 -5 -6 6 -1 11 2 17 5 13 3 -3 4 -12 1 -19z m-4576 -965 c13
-16 12 -17 -3 -4 -10 7 -18 15 -18 17 0 8 8 3 21 -13z m912 -420 c-13 -2 -35
-2 -50 0 -16 2 -5 4 22 4 28 0 40 -2 28 -4z"></path>
<path d="M13764 8728 l-19 -23 23 19 c21 18 27 26 19 26 -2 0 -12 -10 -23 -22z"></path>
<path d="M11908 8113 c7 -3 16 -2 19 1 4 3 -2 6 -13 5 -11 0 -14 -3 -6 -6z"></path>
<path d="M12328 8113 c7 -3 16 -2 19 1 4 3 -2 6 -13 5 -11 0 -14 -3 -6 -6z"></path>
<path d="M12278 13483 c7 -3 16 -2 19 1 4 3 -2 6 -13 5 -11 0 -14 -3 -6 -6z"></path>
<path d="M12660 11942 c0 -5 -20 -8 -45 -6 -25 2 -44 0 -41 -4 2 -4 -11 -7
-30 -8 -19 0 -48 -11 -65 -23 -16 -12 -34 -19 -39 -16 -6 3 -10 1 -10 -4 0 -6
-7 -11 -15 -11 -8 0 -15 -5 -15 -11 0 -5 -4 -8 -9 -4 -6 3 -15 -4 -21 -15 -6
-11 -15 -18 -20 -15 -10 6 -116 -112 -112 -126 1 -5 -3 -9 -9 -9 -5 0 -7 -4
-4 -10 3 -5 1 -10 -5 -10 -6 0 -8 -4 -5 -10 3 -5 1 -10 -5 -10 -6 0 -8 -4 -5
-10 3 -5 1 -10 -5 -10 -7 0 -10 -7 -6 -15 3 -8 1 -15 -4 -15 -5 0 -6 -7 -3
-17 4 -11 3 -14 -5 -9 -8 5 -12 0 -13 -13 -2 -28 -3 -34 -10 -46 -4 -5 -3 -62
2 -125 4 -63 6 -123 2 -134 -4 -13 -2 -16 8 -11 9 6 11 2 7 -13 -4 -14 -2 -20
5 -15 6 4 8 0 4 -10 -3 -10 -2 -17 2 -17 5 0 12 -7 15 -16 3 -9 2 -12 -5 -8
-6 3 -3 -8 5 -25 9 -17 21 -31 27 -31 6 0 7 -4 4 -10 -3 -5 -1 -10 4 -10 6 0
11 -6 11 -14 0 -8 5 -18 12 -22 7 -5 8 -2 3 7 -11 20 -3 11 40 -41 21 -25 39
-43 40 -40 2 3 12 -6 24 -20 11 -14 20 -21 21 -16 0 6 7 1 16 -10 8 -10 13
-12 9 -4 -5 12 -4 12 7 -1 7 -9 19 -14 27 -11 8 3 11 0 7 -7 -4 -7 -2 -9 7 -5
8 3 21 -1 28 -9 7 -7 24 -12 38 -9 21 3 23 1 11 -7 -11 -8 -5 -9 25 -5 22 3
35 2 28 -3 -6 -4 32 -8 87 -8 57 0 96 4 93 9 -4 5 7 6 25 3 20 -4 32 -2 32 4
0 6 7 9 15 5 8 -3 15 -1 15 4 0 5 7 6 17 3 12 -5 14 -3 8 7 -5 8 -4 11 3 6 14
-9 83 25 75 37 -4 6 -1 7 7 2 8 -5 21 2 35 19 13 15 27 27 32 28 4 0 7 4 5 10
-1 5 2 7 7 4 11 -7 91 83 91 102 0 6 5 12 11 12 5 0 7 5 4 10 -3 6 -1 10 5 10
6 0 8 5 5 10 -3 6 -1 10 5 10 6 0 8 5 5 10 -3 6 -2 10 3 10 13 0 33 75 26 94
-3 9 -1 16 4 16 7 0 10 37 9 104 0 59 -5 102 -10 99 -5 -3 -6 8 -2 27 5 21 4
30 -3 26 -6 -4 -8 2 -5 14 3 12 0 20 -6 20 -7 0 -9 5 -6 10 3 6 1 10 -5 10 -6
0 -8 4 -5 10 7 12 -32 90 -46 90 -6 0 -8 4 -5 8 3 5 -8 19 -25 31 -16 12 -27
26 -25 30 3 5 -4 17 -17 27 -21 19 -21 19 -8 -1 8 -11 -3 -2 -23 20 -20 22
-36 35 -36 30 0 -6 -5 -2 -11 8 -6 9 -14 15 -20 12 -5 -4 -9 -1 -9 5 0 6 -4 8
-10 5 -5 -3 -10 -1 -10 5 0 6 -4 8 -10 5 -5 -3 -10 -1 -10 5 0 6 -4 9 -9 6 -5
-4 -11 -1 -13 5 -2 6 -16 12 -31 12 -15 1 -27 6 -27 10 0 5 -5 5 -10 2 -6 -4
-17 -2 -25 5 -7 6 -32 9 -54 7 -22 -2 -38 0 -35 5 3 4 -6 8 -20 8 -14 0 -26
-4 -26 -8z"></path>
<path d="M8611 10514 c0 -11 3 -14 6 -6 3 7 2 16 -1 19 -3 4 -6 -2 -5 -13z"></path>
<path d="M9572 10320 c0 -14 2 -19 5 -12 2 6 2 18 0 25 -3 6 -5 1 -5 -13z"></path>
<path d="M9581 10244 c0 -11 3 -14 6 -6 3 7 2 16 -1 19 -3 4 -6 -2 -5 -13z"></path>
<path d="M7651 10064 c0 -11 3 -14 6 -6 3 7 2 16 -1 19 -3 4 -6 -2 -5 -13z"></path>
<path d="M7641 9994 c0 -11 3 -14 6 -6 3 7 2 16 -1 19 -3 4 -6 -2 -5 -13z"></path>
<path d="M6701 9704 c0 -11 3 -14 6 -6 3 7 2 16 -1 19 -3 4 -6 -2 -5 -13z"></path>
<path d="M8611 9644 c0 -11 3 -14 6 -6 3 7 2 16 -1 19 -3 4 -6 -2 -5 -13z"></path>
<path d="M11923 6963 c9 -2 25 -2 35 0 9 3 1 5 -18 5 -19 0 -27 -2 -17 -5z"></path>
</g>
</svg><style>@media (prefers-color-scheme: light) { :root { filter: none; } }
@media (prefers-color-scheme: dark) { :root { filter: none; } }
</style></svg>